<?xml version="1.0" standalone="no"?>
<!DOCTYPE svg PUBLIC "-//W3C//DTD SVG 20010904//EN"
 "http://www.w3.org/TR/2001/REC-SVG-20010904/DTD/svg10.dtd">
<svg version="1.0" xmlns="http://www.w3.org/2000/svg"
 width="322.000000pt" height="322.000000pt" viewBox="0 0 322.000000 322.000000"
 preserveAspectRatio="xMidYMid meet">

<g transform="translate(0.000000,322.000000) scale(0.100000,-0.100000)"
fill="#000000" stroke="none">
<path d="M10 3200 c0 -11 6 -20 13 -20 7 0 13 9 14 20 1 11 -4 20 -13 20 -8 0
-14 -9 -14 -20z"/>
<path d="M865 3200 c-109 -32 -550 -150 -562 -150 -10 0 -13 -76 -13 -345 0
-223 4 -345 10 -345 6 0 10 53 11 138 1 256 10 495 19 511 5 10 39 24 87 35
43 10 87 22 98 27 11 5 49 16 85 25 158 38 222 54 320 82 58 17 114 32 125 35
11 3 -11 5 -50 5 -39 0 -97 -8 -130 -18z"/>
<path d="M1610 3206 c-52 -14 -48 2 -52 -204 -2 -99 0 -132 9 -132 9 0 11 10
7 30 -4 19 -2 30 5 30 7 0 11 30 11 89 0 93 10 139 32 145 23 6 143 29 156 29
6 0 12 6 12 14 0 17 -115 16 -180 -1z"/>
<path d="M1937 3123 c-4 -54 -9 -164 -13 -245 l-7 -147 -48 25 c-27 13 -57 24
-69 24 -11 0 -20 4 -20 9 0 4 -17 20 -39 35 -29 20 -53 28 -97 30 -86 5 -197
-21 -265 -60 -65 -39 -154 -132 -185 -196 -82 -166 -134 -279 -143 -315 -11
-42 -13 -43 -54 -44 -23 -1 -48 -1 -56 0 -7 2 -11 -4 -9 -11 5 -15 58 -19 76
-5 19 15 25 2 17 -34 -7 -31 -8 -32 -21 -14 -13 18 -14 17 -14 -8 0 -19 4 -25
15 -21 18 7 18 0 3 -65 l-11 -50 -61 -5 c-34 -3 -171 -10 -306 -16 -135 -6
-270 -13 -300 -15 -30 -3 -117 -8 -192 -11 l-138 -7 0 -118 c0 -104 2 -118 17
-122 17 -4 17 -5 1 -6 -17 -1 -18 -22 -18 -292 l0 -291 25 6 c23 6 25 4 25
-30 0 -33 -2 -36 -25 -32 -23 5 -25 2 -25 -28 0 -21 5 -34 13 -34 8 0 7 -3 -3
-10 -8 -5 -12 -12 -8 -15 3 -3 13 1 21 10 9 8 18 11 21 7 3 -5 -6 -14 -19 -20
-23 -11 -25 -17 -25 -87 0 -43 4 -75 10 -75 6 0 11 15 11 33 4 73 8 100 18
110 8 8 11 7 13 -3 4 -34 5 -58 7 -105 1 -33 4 -45 10 -36 6 9 18 11 35 7 14
-3 26 -2 26 3 0 5 -12 11 -27 13 -26 3 -28 6 -28 54 l-1 51 39 0 38 0 -2 -69
c-1 -37 1 -71 4 -75 6 -5 300 -73 319 -73 5 0 8 34 8 76 0 66 2 75 17 72 11
-2 17 -12 16 -28 0 -14 -1 -58 -2 -97 -1 -70 -2 -73 -26 -73 -34 0 -302 58
-346 75 -20 8 -60 16 -88 20 l-51 6 0 -79 c0 -79 14 -127 39 -137 8 -3 19 -1
25 5 7 7 3 10 -12 10 -15 0 -22 6 -22 18 0 26 6 30 35 24 23 -4 25 -9 25 -63
l0 -58 -32 6 -33 5 0 -221 c0 -192 2 -221 15 -221 28 0 135 31 138 39 2 5 13
6 24 3 17 -4 20 -2 15 11 -8 22 9 32 21 12 11 -21 38 -10 46 18 3 12 9 95 13
184 3 90 10 163 15 163 4 0 8 -4 8 -10 0 -5 9 -10 20 -10 23 0 22 8 21 -187
-1 -79 1 -143 5 -143 10 0 149 33 153 37 3 2 -6 14 -18 27 -23 25 -23 31 5
129 8 25 24 21 24 -6 0 -13 6 -29 12 -36 7 -8 8 -11 2 -8 -7 4 -9 -5 -5 -26 4
-32 5 -32 13 -7 6 19 7 16 3 -14 -4 -36 -3 -37 11 -20 13 16 15 17 10 2 -6
-20 10 -34 18 -16 3 7 4 0 2 -17 -4 -28 -3 -28 10 -10 13 18 14 18 14 -6 0
-19 2 -21 10 -9 8 13 10 13 10 -2 0 -11 5 -15 15 -12 8 4 15 1 15 -6 0 -8 -9
-11 -25 -8 -22 5 -25 2 -25 -27 0 -18 -5 -32 -12 -32 -15 0 -210 -52 -308 -82
l-65 -19 187 -1 c140 -1 188 2 191 12 4 8 6 9 6 0 1 -17 387 -18 394 -1 4 10
6 10 6 1 1 -10 69 -13 306 -13 l305 0 0 30 c0 17 9 38 23 51 20 20 28 21 112
14 50 -4 100 -7 112 -7 12 0 24 -7 27 -15 4 -10 2 -13 -7 -10 -11 4 -13 -2
-11 -24 2 -18 0 -28 -6 -24 -6 3 -10 1 -10 -4 0 -6 14 -11 30 -11 25 0 30 4
30 25 0 13 8 32 19 42 10 10 20 33 23 51 4 31 -5 44 -15 20 -3 -7 -6 0 -6 15
-1 27 24 87 35 87 4 0 4 -9 1 -20 -3 -11 -1 -20 4 -20 5 0 7 -21 4 -47 -5 -53
13 -47 20 6 2 18 10 41 18 50 8 9 17 31 21 50 5 31 5 32 -12 20 -26 -21 -32
-33 -19 -41 6 -4 8 -10 5 -13 -23 -23 -38 44 -18 75 8 13 10 12 10 -3 0 -10 5
-15 10 -12 6 3 10 21 10 40 0 40 8 65 22 65 6 0 7 -11 4 -25 -4 -16 -2 -25 5
-25 8 0 10 -15 7 -45 -7 -55 8 -50 17 5 4 23 18 54 31 69 15 18 22 36 18 45
-6 16 -8 16 -25 0 -11 -9 -19 -26 -19 -36 0 -11 -5 -16 -10 -13 -6 4 -9 25 -6
47 5 41 16 65 16 34 0 -36 16 -5 19 36 1 26 10 51 22 64 10 11 19 33 19 50 0
22 3 25 10 14 8 -13 9 -13 14 0 10 32 13 69 5 64 -14 -9 -10 4 8 25 9 11 21
17 26 14 5 -3 2 6 -7 19 -15 23 -15 26 4 48 21 24 26 20 11 -9 -7 -12 -6 -18
2 -18 17 0 20 49 5 58 -10 6 -9 15 5 38 9 16 17 38 17 49 0 11 6 24 13 30 7 6
14 23 15 38 1 15 9 35 17 44 8 9 15 26 15 37 0 11 7 26 15 33 8 7 15 24 15 37
0 16 7 27 20 30 11 3 20 14 20 24 0 11 6 19 14 19 7 0 19 6 25 14 7 8 20 12
30 9 10 -3 22 0 25 6 4 5 14 7 23 4 13 -5 15 -2 10 11 -5 12 -3 16 5 13 7 -2
12 -11 10 -20 -3 -16 1 -18 75 -37 32 -8 41 -15 40 -30 -1 -19 -17 -30 -17
-12 0 4 -15 8 -34 9 -25 1 -33 -3 -30 -12 3 -8 -6 -21 -21 -31 -34 -22 -28
-26 19 -10 40 14 76 11 76 -6 0 -5 -5 -6 -11 -2 -8 5 -8 1 0 -14 6 -12 17 -24
24 -28 8 -5 7 -2 -2 9 -8 10 -11 21 -7 25 4 4 11 0 16 -8 5 -8 20 -30 34 -49
14 -19 26 -41 26 -48 0 -17 17 -17 24 0 3 6 3 -1 1 -18 -3 -16 -2 -24 1 -17 8
17 24 5 17 -13 -3 -9 0 -29 6 -45 6 -17 16 -44 22 -60 11 -30 49 -43 49 -17 0
9 12 12 38 10 l37 -2 -32 11 c-47 16 -43 38 7 36 22 -1 40 -6 40 -12 0 -6 4
-5 8 2 6 9 16 10 33 5 13 -5 31 -8 39 -7 8 1 23 2 33 3 9 0 17 8 17 17 0 14
-3 14 -15 4 -13 -11 -15 -7 -17 26 -1 37 -1 37 -5 7 -4 -31 -23 -48 -23 -20 0
8 -3 7 -10 -3 -8 -13 -9 -13 -14 0 -2 8 -7 22 -9 30 -3 8 -6 2 -6 -14 -1 -24
-3 -27 -16 -16 -12 10 -15 10 -15 0 0 -8 -3 -10 -7 -6 -10 9 -11 286 -1 286 3
0 4 8 1 19 -8 29 50 35 174 16 l45 -6 -5 -47 c-12 -106 -26 -276 -23 -279 2
-2 26 2 55 9 l51 11 0 630 0 630 -82 -7 c-46 -3 -139 -8 -208 -11 -69 -3 -144
-8 -167 -11 -34 -4 -42 -2 -46 13 -4 15 -5 14 -6 -4 -1 -19 -8 -22 -83 -27
-46 -4 -153 -7 -238 -9 l-155 -2 -8 64 c-4 35 -6 66 -3 68 2 2 27 5 55 5 29 1
54 5 57 10 5 7 -18 12 -38 9 -5 0 -8 4 -8 9 0 16 -22 12 -35 -7 -11 -15 -14
-11 -21 32 l-7 50 -9 -32 c-5 -18 -13 -33 -18 -33 -17 0 -49 62 -62 120 -17
83 -84 208 -141 267 l-50 52 7 138 c18 349 19 373 3 373 -11 0 -15 -22 -20
-97z m-307 -618 c0 -14 0 -27 0 -30 0 -3 -3 -5 -7 -6 -5 0 -13 -5 -19 -10 -6
-5 -19 -6 -29 -3 -10 4 -21 1 -26 -7 -7 -11 -11 -11 -17 -1 -5 7 -16 10 -26 6
-14 -5 -17 -3 -14 12 2 10 10 18 16 17 7 -2 12 2 12 7 0 6 11 10 25 10 14 0
25 5 25 11 0 6 7 9 15 5 8 -3 15 -1 15 4 0 6 7 10 15 10 9 0 15 -9 15 -25z
m-209 -45 c5 0 9 -4 9 -10 0 -5 -6 -10 -14 -10 -8 0 -16 -7 -20 -15 -9 -25
-25 -17 -22 13 5 36 4 35 22 28 9 -3 20 -6 25 -6z m-111 -50 c0 -5 -4 -10 -10
-10 -5 0 -10 5 -10 10 0 6 5 10 10 10 6 0 10 -4 10 -10z m65 -89 c17 -2 31 -7
33 -12 3 -8 51 -3 82 8 34 13 91 13 96 -1 3 -8 15 -11 29 -8 14 2 22 8 19 13
-3 5 1 9 10 9 8 0 23 3 33 6 16 5 16 4 -2 -10 -19 -16 -18 -16 15 -12 28 3 38
0 53 -20 19 -26 8 -34 -13 -9 -15 18 -79 20 -135 3 -22 -6 -48 -10 -57 -9 -10
1 -18 -1 -18 -6 0 -15 -55 -33 -80 -26 -14 3 -65 9 -115 12 -59 4 -84 10 -72
15 9 4 17 12 17 18 0 15 24 35 38 30 6 -2 12 2 12 8 0 8 4 9 13 3 6 -5 26 -10
42 -12z m360 -91 c-3 -5 -12 -7 -20 -3 -21 7 -19 13 6 13 11 0 18 -4 14 -10z
m-90 -80 c3 -5 -1 -10 -10 -10 -9 0 -13 5 -10 10 3 6 8 10 10 10 2 0 7 -4 10
-10z m-135 -30 c0 -9 7 -31 16 -48 16 -33 26 -42 22 -19 -3 14 17 13 84 -3 40
-10 51 -9 85 8 57 29 142 57 149 49 24 -24 40 -263 17 -271 -7 -3 -13 7 -15
26 -2 26 -8 32 -31 35 -22 3 -30 -1 -34 -17 -6 -24 -5 -24 -51 -3 -20 9 -40
16 -43 15 -3 0 -27 19 -54 43 -45 41 -128 81 -145 70 -8 -5 -19 -65 -12 -65 3
0 10 7 17 17 7 10 19 14 29 10 29 -12 12 -32 -30 -35 -21 -2 -43 -8 -48 -13
-13 -12 -46 -11 -46 2 0 6 -9 8 -20 4 -15 -5 -20 -2 -20 12 -1 14 -6 12 -29
-13 -16 -18 -33 -40 -38 -49 -11 -19 -63 -30 -63 -14 0 6 -5 7 -10 4 -23 -14
-37 75 -24 145 7 31 8 32 43 25 60 -13 105 -13 119 -2 10 8 16 7 21 -2 10 -15
51 63 51 95 0 17 5 20 30 16 20 -3 30 -10 30 -22z m-200 -6 c0 -8 -4 -12 -10
-9 -5 3 -10 10 -10 16 0 5 5 9 10 9 6 0 10 -7 10 -16z m1673 -81 c-7 -2 -19
-2 -25 0 -7 3 -2 5 12 5 14 0 19 -2 13 -5z m-238 -13 c-3 -5 -13 -10 -21 -10
-8 0 -14 5 -14 10 0 6 9 10 21 10 11 0 17 -4 14 -10z m406 -102 c0 -10 2 -10
6 0 2 6 11 12 19 12 19 0 19 -30 -8 -394 l-22 -309 -103 6 c-57 3 -107 8 -111
11 -7 4 -3 112 12 324 l6 82 -51 -4 c-59 -5 -74 12 -40 48 16 17 29 21 56 18
27 -3 35 0 35 11 0 8 3 22 6 31 4 12 0 16 -15 16 -12 0 -21 6 -21 13 -1 7 -6
5 -14 -6 -13 -17 -14 -17 -18 -1 -3 17 -4 17 -20 0 -17 -16 -23 -14 -18 9 1 5
-7 2 -18 -8 -21 -19 -54 -13 -45 9 3 8 10 11 16 7 6 -4 8 3 3 21 -8 31 17 37
33 9 12 -23 21 -14 24 26 1 23 7 31 21 31 14 0 17 -6 14 -24 -3 -13 1 -31 8
-40 11 -15 13 -14 19 12 3 16 5 34 3 40 -2 5 2 12 7 13 6 2 13 -16 16 -41 3
-25 7 -34 7 -21 3 33 24 91 34 91 4 0 8 -4 8 -10 0 -5 5 -10 10 -10 6 0 9 6 8
13 -2 7 14 14 42 18 75 10 90 10 91 -3z m-1111 -8 c0 -5 -5 -10 -11 -10 -5 0
-7 5 -4 10 3 6 8 10 11 10 2 0 4 -4 4 -10z m800 -39 c0 -9 -24 -21 -41 -21 -5
0 -9 7 -9 15 0 9 9 15 25 15 14 0 25 -4 25 -9z m-1213 -29 c1 -12 -1 -22 -5
-22 -11 0 -32 37 -25 44 12 11 26 0 30 -22z m-1047 -47 l0 -65 -35 0 c-32 0
-52 -19 -22 -21 6 0 3 -4 -8 -8 -11 -5 -33 -7 -50 -5 -16 2 -54 5 -82 6 -29 1
-53 4 -53 6 0 8 29 32 39 32 6 0 11 12 11 26 0 14 -4 23 -10 19 -5 -3 -10 -13
-10 -21 0 -15 -16 -19 -24 -6 -9 15 6 52 20 52 8 0 14 7 14 15 0 25 96 21 112
-5 17 -28 25 -25 33 10 5 25 11 30 36 30 l29 0 0 -65z m-501 -27 c1 -21 -3
-38 -9 -38 -6 0 -10 27 -9 63 1 46 3 56 9 37 4 -14 8 -42 9 -62z m1344 63 c-2
-6 3 -11 10 -11 16 0 -13 -20 -30 -20 -14 0 -18 32 -6 44 10 9 28 1 26 -13z
m-1122 -51 c-7 -36 -9 -39 -10 -15 -1 33 11 85 16 70 1 -6 -1 -30 -6 -55z
m2037 -50 c0 -64 -1 -64 -9 -20 -4 25 -7 65 -7 90 0 37 1 40 8 20 4 -14 8 -54
8 -90z m302 100 c0 -5 -12 -10 -27 -9 -25 0 -26 1 -8 9 27 12 35 12 35 0z
m-830 -14 c0 -7 -7 -19 -15 -26 -8 -7 -15 -18 -15 -25 0 -7 -7 -16 -15 -19
-12 -4 -15 1 -13 29 1 18 5 32 9 29 4 -2 12 3 19 11 16 19 30 19 30 1z m925 4
c3 -5 1 -10 -4 -10 -6 0 -11 5 -11 10 0 6 2 10 4 10 3 0 8 -4 11 -10z m-50
-31 c-9 -13 9 -11 23 3 13 13 17 6 25 -47 7 -37 -10 -110 -29 -126 -8 -6 -14
-20 -14 -31 0 -10 -4 -16 -10 -13 -5 3 -10 1 -10 -4 0 -26 -16 -8 -18 21 -2
17 -4 47 -7 65 -2 18 0 35 5 38 15 9 12 35 -4 35 -10 0 -15 -20 -17 -79 -2
-44 -7 -82 -9 -85 -11 -10 -51 7 -46 19 2 6 1 17 -3 24 -5 7 -5 30 -1 52 8 43
0 54 -40 62 -18 3 -14 5 13 6 45 1 110 29 101 43 -3 5 2 15 12 23 20 14 38 10
29 -6z m-2405 2 c0 -6 -4 -13 -10 -16 -5 -3 -10 1 -10 9 0 9 5 16 10 16 6 0
10 -4 10 -9z m1560 -1 c0 -5 -5 -10 -11 -10 -5 0 -7 5 -4 10 3 6 8 10 11 10 2
0 4 -4 4 -10z m-1015 -38 c0 -18 -20 -15 -23 4 -3 10 1 15 10 12 7 -3 13 -10
13 -16z m103 0 c3 -9 -2 -13 -14 -10 -9 1 -19 9 -22 16 -3 9 2 13 14 10 9 -1
19 -9 22 -16z m422 -7 c7 -8 19 -15 26 -15 8 0 14 -7 14 -15 0 -42 158 -73
192 -37 34 36 68 56 53 32 -3 -5 -1 -10 4 -10 6 0 11 4 11 9 0 5 19 11 43 13
31 4 46 0 59 -13 16 -16 15 -19 -10 -46 -15 -16 -49 -42 -76 -57 -42 -25 -55
-27 -98 -22 -31 4 -55 3 -63 -4 -22 -18 -95 20 -95 50 0 6 -6 13 -14 16 -7 3
-22 20 -32 39 -10 19 -22 31 -28 28 -5 -4 -7 0 -3 9 3 9 0 21 -6 27 -8 8 -8
11 0 11 6 0 16 -7 23 -15z m-1084 -5 c8 0 14 -4 14 -10 0 -5 -16 -10 -35 -10
-33 0 -43 8 -28 24 4 3 13 4 21 1 7 -3 20 -5 28 -5z m1409 0 c3 -6 -4 -10 -17
-10 -18 0 -20 2 -8 10 19 12 18 12 25 0z m1170 -20 c-3 -5 -17 -10 -31 -10
-14 0 -22 4 -19 10 3 6 17 10 31 10 14 0 22 -4 19 -10z m92 4 c-3 -3 -12 -4
-19 -1 -8 3 -5 6 6 6 11 1 17 -2 13 -5z m-131 -34 c13 0 24 -5 24 -11 0 -7
-12 -8 -32 -4 -44 10 -53 16 -37 26 8 5 15 4 17 -1 2 -6 15 -10 28 -10z
m-2739 -28 c-10 -10 -17 -26 -17 -35 0 -9 -4 -19 -10 -22 -5 -3 -9 -36 -8 -73
l1 -67 6 60 c4 33 14 76 23 95 17 34 17 34 18 8 0 -14 -6 -28 -13 -31 -9 -4
-9 -7 1 -18 14 -16 16 -55 2 -64 -5 -3 -10 -14 -10 -24 0 -18 -39 -62 -41 -45
-4 50 4 170 12 172 5 2 9 17 9 33 0 23 4 29 22 29 20 0 20 -1 5 -18z m431 -2
c2 -4 12 -6 22 -3 11 3 20 0 20 -6 0 -15 -47 -14 -52 1 -3 9 -9 8 -22 -4 -14
-14 -15 -22 -6 -39 15 -26 3 -40 -14 -16 -7 9 -21 17 -30 17 -9 0 -16 6 -16
14 0 17 -18 31 -28 21 -3 -3 0 -10 8 -15 8 -6 11 -10 5 -10 -5 0 -16 4 -24 9
-10 7 -10 13 5 30 17 20 25 22 74 16 30 -4 56 -10 58 -15z m342 -10 c0 -5 -4
-10 -10 -10 -5 0 -10 5 -10 10 0 6 5 10 10 10 6 0 10 -4 10 -10z m1977 -12
c-3 -8 -6 -5 -6 6 -1 11 2 17 5 13 3 -3 4 -12 1 -19z m-2563 5 c-5 -5 -12 -12
-16 -18 -4 -6 -8 -2 -8 8 0 9 7 17 17 17 9 0 12 -3 7 -7z m-144 -19 c0 -8 -5
-12 -10 -9 -6 4 -8 11 -5 16 9 14 15 11 15 -7z m410 -13 c15 -29 12 -41 -10
-41 -18 0 -40 26 -40 49 0 19 39 12 50 -8z m2388 -2 c-19 -13 -28 -11 -28 5 0
9 7 12 21 9 16 -4 17 -8 7 -14z m-2624 -39 c-6 -6 -10 -3 -10 10 0 13 4 16 10
10 7 -7 7 -13 0 -20z m-174 -20 c0 -16 -4 -30 -8 -30 -5 0 -7 14 -4 30 2 17 6
30 8 30 2 0 4 -13 4 -30z m640 14 c0 -8 -5 -12 -10 -9 -6 4 -8 11 -5 16 9 14
15 11 15 -7z m73 -9 c-13 -10 -20 -10 -25 -2 -5 8 -8 7 -8 -3 0 -13 -1 -13
-10 0 -12 19 4 28 36 22 23 -4 23 -5 7 -17z m-383 5 c0 -5 -4 -10 -10 -10 -5
0 -10 5 -10 10 0 6 5 10 10 10 6 0 10 -4 10 -10z m110 0 c0 -5 -5 -10 -11 -10
-5 0 -7 5 -4 10 3 6 8 10 11 10 2 0 4 -4 4 -10z m-75 -35 c2 -14 -1 -23 -6
-19 -5 3 -9 17 -9 31 0 32 12 23 15 -12z m-65 15 c0 -5 -7 -10 -16 -10 -8 0
-12 5 -9 10 3 6 10 10 16 10 5 0 9 -4 9 -10z m-74 -65 c-2 -22 -6 -41 -9 -42
-4 -2 -7 -1 -7 2 0 91 2 108 9 95 5 -8 8 -33 7 -55z m34 -1 c0 -30 -5 -54 -10
-54 -6 0 -10 26 -9 60 2 74 19 69 19 -6z m62 44 c-7 -7 -12 -8 -12 -2 0 14 12
26 19 19 2 -3 -1 -11 -7 -17z m84 -13 c-1 -26 -10 -32 -21 -16 -3 5 -1 12 5
16 6 4 8 11 5 16 -4 5 -2 9 3 9 6 0 9 -11 8 -25z m304 15 c0 -5 -4 -10 -10
-10 -5 0 -10 5 -10 10 0 6 5 10 10 10 6 0 10 -4 10 -10z m-560 -39 c0 -11 -4
-9 -14 4 -8 11 -12 24 -9 28 7 11 23 -12 23 -32z m37 7 c-3 -7 -5 -2 -5 12 0
14 2 19 5 13 2 -7 2 -19 0 -25z m105 -22 c-2 -25 -8 -46 -14 -46 -5 0 -7 16
-4 38 3 20 5 43 6 50 0 7 3 11 8 8 4 -2 6 -25 4 -50z m158 44 c0 -5 -4 -10
-10 -10 -5 0 -10 5 -10 10 0 6 5 10 10 10 6 0 10 -4 10 -10z m-133 -67 c-3
-10 -5 -4 -5 12 0 17 2 24 5 18 2 -7 2 -21 0 -30z m93 -8 c0 -14 -3 -25 -7
-25 -5 0 -8 11 -8 25 0 14 3 25 8 25 4 0 7 -11 7 -25z m-493 -37 c-3 -8 -6 -5
-6 6 -1 11 2 17 5 13 3 -3 4 -12 1 -19z m2438 1 c-4 -5 15 -9 42 -9 55 0 88
-14 54 -23 -18 -4 -21 -13 -21 -55 0 -45 -2 -50 -19 -47 -24 4 -61 36 -61 51
0 7 8 10 20 7 11 -3 20 0 20 6 0 6 -11 11 -25 11 -27 0 -58 41 -36 48 6 2 11
10 11 18 0 9 5 12 10 9 6 -4 8 -11 5 -16z m445 -95 c0 -8 -4 -12 -10 -9 -5 3
-10 10 -10 16 0 5 5 9 10 9 6 0 10 -7 10 -16z m-2830 -10 c0 -2 -13 -4 -30 -4
-16 0 -30 4 -30 8 0 5 14 7 30 4 17 -2 30 -6 30 -8z m60 -4 c0 -5 -4 -10 -10
-10 -5 0 -10 5 -10 10 0 6 5 10 10 10 6 0 10 -4 10 -10z m13 -47 c-7 -2 -21
-2 -30 0 -10 3 -4 5 12 5 17 0 24 -2 18 -5z m147 -13 c0 -5 -5 -10 -11 -10 -5
0 -7 5 -4 10 3 6 8 10 11 10 2 0 4 -4 4 -10z m83 -17 c-7 -2 -19 -2 -25 0 -7
3 -2 5 12 5 14 0 19 -2 13 -5z m-158 -13 c49 -7 49 -7 10 -8 -22 -1 -58 3 -80
7 -34 8 -36 9 -10 9 17 0 53 -3 80 -8z m88 -27 c-7 -2 -19 -2 -25 0 -7 3 -2 5
12 5 14 0 19 -2 13 -5z m-86 -10 c-9 -2 -14 -9 -10 -15 4 -8 0 -9 -11 -5 -10
4 -34 8 -54 8 l-37 2 40 7 c45 8 101 10 72 3z m237 -54 c-10 -16 -24 -9 -24
12 0 18 2 19 15 9 8 -7 12 -16 9 -21z m1057 15 c10 -9 16 -21 13 -26 -3 -5 1
-15 9 -21 20 -16 8 -99 -22 -147 -15 -26 -17 -37 -9 -47 8 -11 6 -21 -11 -44
-12 -16 -19 -34 -16 -39 3 -6 1 -10 -4 -10 -6 0 -11 -8 -12 -17 0 -10 -3 -13
-5 -6 -3 7 -11 10 -18 7 -14 -5 -106 54 -106 67 0 5 7 34 15 66 8 31 15 78 16
103 1 35 3 39 8 20 9 -33 18 -15 20 40 0 26 7 49 15 55 24 18 87 17 107 -1z
m-1345 -53 c-12 -19 -24 -12 -19 10 4 13 9 17 15 11 6 -6 7 -15 4 -21z m44 15
c0 -11 -19 -15 -25 -6 -3 5 1 10 9 10 9 0 16 -2 16 -4z m137 -42 c-3 -3 -12
-4 -19 -1 -8 3 -5 6 6 6 11 1 17 -2 13 -5z m969 -81 c2 -37 -2 -50 -19 -64
-21 -18 -23 -18 -39 1 -13 16 -14 24 -5 45 7 14 15 25 20 25 4 0 7 5 7 10 0
13 23 40 30 34 2 -3 5 -26 6 -51z m-1251 37 c3 -5 1 -10 -4 -10 -6 0 -11 5
-11 10 0 6 2 10 4 10 3 0 8 -4 11 -10z m495 -25 c-7 -9 -15 -13 -19 -10 -3 3
1 10 9 15 21 14 24 12 10 -5z m-255 -5 c3 -6 -1 -7 -9 -4 -18 7 -21 14 -7 14
6 0 13 -4 16 -10z m-125 -32 c0 -7 4 -7 13 -1 8 6 50 2 122 -12 l110 -21 3
-33 c3 -31 2 -33 -20 -28 -13 4 -63 14 -112 23 -55 10 -98 24 -110 35 -11 11
-23 19 -28 19 -4 0 -8 9 -8 20 0 13 5 18 15 14 8 -4 15 -11 15 -16z m1356 -34
c-4 -9 -9 -15 -11 -12 -3 3 -3 13 1 22 4 9 9 15 11 12 3 -3 3 -13 -1 -22z
m-229 -26 c-3 -8 -6 -5 -6 6 -1 11 2 17 5 13 3 -3 4 -12 1 -19z m-990 -29 c72
-18 76 -19 70 -25 -9 -9 -137 17 -137 27 0 12 10 11 67 -2z m330 -13 c-3 -8
-9 -32 -13 -53 -11 -67 -34 -147 -43 -156 -5 -5 -4 13 1 40 5 26 11 62 14 78
5 46 26 105 37 105 5 0 7 -6 4 -14z m673 -86 c-6 -11 -16 -18 -21 -14 -6 3 -3
12 8 20 24 18 26 17 13 -6z m-1233 -22 c-3 -8 -6 -5 -6 6 -1 11 2 17 5 13 3
-3 4 -12 1 -19z m494 -1 c-13 -13 -26 -3 -16 12 3 6 11 8 17 5 6 -4 6 -10 -1
-17z m489 13 c0 -5 -5 -10 -11 -10 -5 0 -7 5 -4 10 3 6 8 10 11 10 2 0 4 -4 4
-10z m293 -9 c-9 -11 -23 -17 -31 -14 -12 5 -12 8 4 20 28 21 47 17 27 -6z
m-288 -66 c-14 -37 -25 -71 -25 -74 0 -11 36 53 48 84 9 26 11 27 11 7 1 -12
-15 -62 -34 -111 -19 -48 -35 -95 -35 -104 0 -9 -4 -19 -10 -22 -5 -3 -10 -18
-11 -33 0 -15 -5 -36 -10 -47 -6 -13 -7 3 -4 49 6 85 -1 81 -19 -10 -13 -64
-19 -61 -18 11 1 29 1 29 -7 5 -5 -14 -10 -41 -12 -60 -2 -26 -4 -20 -9 25 -6
58 -7 59 -9 15 -2 -40 -3 -42 -12 -21 -5 13 -7 32 -4 42 4 11 2 19 -4 19 -6 0
-11 8 -11 18 0 15 2 15 10 2 8 -11 10 -6 8 20 -3 70 42 215 65 207 6 -2 16
-28 21 -57 l8 -54 41 82 c22 45 42 80 44 79 1 -2 -9 -34 -22 -72z m-785 61 c0
-2 -7 -6 -15 -10 -8 -3 -15 -1 -15 4 0 6 7 10 15 10 8 0 15 -2 15 -4z m737
-18 c-3 -8 -6 -5 -6 6 -1 11 2 17 5 13 3 -3 4 -12 1 -19z m243 15 c0 -5 -5
-15 -10 -23 -8 -12 -10 -11 -10 8 0 12 5 22 10 22 6 0 10 -3 10 -7z m36 -19
c-4 -12 -1 -14 14 -9 11 4 20 2 20 -4 0 -16 -57 -13 -63 3 -7 17 1 26 21 26 9
0 12 -6 8 -16z m-1244 -16 c-7 -7 -12 -8 -12 -2 0 14 12 26 19 19 2 -3 -1 -11
-7 -17z m508 2 c0 -5 -2 -10 -4 -10 -3 0 -8 5 -11 10 -3 6 -1 10 4 10 6 0 11
-4 11 -10z m465 -36 c-17 -34 -20 -18 -4 23 6 15 13 23 15 17 3 -6 -2 -24 -11
-40z m97 -38 c-10 -31 -15 -56 -10 -56 4 0 8 4 8 9 0 15 52 123 57 118 2 -3
-12 -51 -32 -108 -20 -57 -39 -114 -42 -126 -6 -25 -33 -40 -33 -19 0 8 6 16
13 19 9 4 9 7 0 17 -10 11 -14 8 -23 -14 -5 -15 -10 -36 -10 -46 0 -10 -5 -22
-11 -26 -13 -8 -3 102 10 121 4 6 20 42 35 80 41 103 50 121 54 103 2 -9 -6
-41 -16 -72z m97 77 c-1 -17 -28 -77 -28 -67 -2 24 12 74 20 74 5 0 9 -3 8 -7z
m18 -45 c-3 -8 -6 -5 -6 6 -1 11 2 17 5 13 3 -3 4 -12 1 -19z m-1104 -18 c-7
-27 23 -37 47 -15 18 16 20 16 35 1 20 -19 27 -20 45 -3 12 10 12 9 1 -5 -16
-22 -29 -23 -51 -3 -15 14 -18 14 -30 0 -7 -8 -18 -15 -26 -15 -16 0 -45 40
-38 52 10 16 22 8 17 -12z m80 13 c-13 -2 -33 -2 -45 0 -13 2 -3 4 22 4 25 0
35 -2 23 -4z m970 -48 c-3 -9 -8 -14 -10 -11 -3 3 -2 9 2 15 9 16 15 13 8 -4z
m-28 -77 c-14 -29 -25 -62 -26 -73 0 -12 -3 -15 -6 -7 -6 15 37 132 49 132 4
0 -4 -24 -17 -52z m-996 18 c-11 -9 -69 -14 -69 -6 0 6 16 10 37 10 20 0 34
-2 32 -4z m1698 -48 c-3 -8 -6 -5 -6 6 -1 11 2 17 5 13 3 -3 4 -12 1 -19z m40
-15 c-3 -10 -5 -4 -5 12 0 17 2 24 5 18 2 -7 2 -21 0 -30z m-37 -51 c0 -15 -2
-15 -10 -2 -13 20 -13 33 0 25 6 -3 10 -14 10 -23z m-1793 -19 c-3 -10 -5 -4
-5 12 0 17 2 24 5 18 2 -7 2 -21 0 -30z m370 31 c-3 -3 -12 -4 -19 -1 -8 3 -5
6 6 6 11 1 17 -2 13 -5z m640 -56 c-3 -7 -5 -2 -5 12 0 14 2 19 5 13 2 -7 2
-19 0 -25z m733 16 c0 -8 -4 -12 -10 -9 -5 3 -10 10 -10 16 0 5 5 9 10 9 6 0
10 -7 10 -16z m-1363 0 c-3 -3 -12 -4 -19 -1 -8 3 -5 6 6 6 11 1 17 -2 13 -5z
m-381 -142 c-12 -11 -13 4 -7 68 l6 65 3 -64 c2 -35 1 -66 -2 -69z m314 114
c0 -3 -4 -8 -10 -11 -5 -3 -10 -1 -10 4 0 6 5 11 10 11 6 0 10 -2 10 -4z
m1480 -11 c0 -8 -4 -15 -10 -15 -5 0 -10 7 -10 15 0 8 5 15 10 15 6 0 10 -7
10 -15z m-1638 -90 c-8 -56 -27 -59 -26 -4 1 47 12 75 24 63 5 -5 6 -31 2 -59z
m-165 -87 c-2 -13 -4 -3 -4 22 0 25 2 35 4 23 2 -13 2 -33 0 -45z m1851 -42
c-10 -23 -9 -29 3 -37 11 -7 11 -9 -3 -9 -21 0 -25 49 -6 68 17 17 20 8 6 -22z
m-1851 -18 c-3 -7 -5 -2 -5 12 0 14 2 19 5 13 2 -7 2 -19 0 -25z m960 -35 c-3
-10 -5 -4 -5 12 0 17 2 24 5 18 2 -7 2 -21 0 -30z"/>
<path d="M1560 2039 c0 -5 5 -7 10 -4 6 3 10 8 10 11 0 2 -4 4 -10 4 -5 0 -10
-5 -10 -11z"/>
<path d="M1391 1974 c0 -11 3 -14 6 -6 3 7 2 16 -1 19 -3 4 -6 -2 -5 -13z"/>
<path d="M443 1803 c-31 -6 -29 -23 2 -23 16 0 25 6 25 15 0 8 -1 14 -2 14 -2
-1 -13 -4 -25 -6z"/>
<path d="M430 1739 c0 -5 5 -7 10 -4 6 3 10 8 10 11 0 2 -4 4 -10 4 -5 0 -10
-5 -10 -11z"/>
<path d="M465 1740 c-3 -5 -1 -10 4 -10 6 0 11 5 11 10 0 6 -2 10 -4 10 -3 0
-8 -4 -11 -10z"/>
<path d="M420 1636 c0 -9 5 -16 10 -16 6 0 10 4 10 9 0 6 -4 13 -10 16 -5 3
-10 -1 -10 -9z"/>
<path d="M500 1590 c0 -5 5 -10 10 -10 6 0 10 5 10 10 0 6 -4 10 -10 10 -5 0
-10 -4 -10 -10z"/>
<path d="M975 646 c-9 -21 -14 -43 -12 -49 2 -6 11 9 21 32 9 24 14 46 12 49
-3 3 -13 -12 -21 -32z"/>
<path d="M1026 523 c-6 -14 -5 -15 5 -6 7 7 10 15 7 18 -3 3 -9 -2 -12 -12z"/>
<path d="M1105 521 c-8 -17 -12 -31 -7 -31 10 0 35 50 28 57 -2 3 -12 -9 -21
-26z"/>
<path d="M2106 3093 c-4 -71 -9 -163 -12 -205 -3 -46 0 -79 6 -83 6 -4 10 23
10 77 1 75 3 114 14 286 2 28 0 52 -4 52 -4 0 -10 -57 -14 -127z"/>
<path d="M2145 3202 c-3 -8 -5 -40 -5 -73 l0 -59 37 18 36 17 -31 3 c-27 3
-30 5 -19 17 16 16 99 45 130 45 16 0 18 3 8 9 -11 7 -11 9 0 14 10 4 9 6 -3
6 -9 1 -24 -6 -32 -14 -11 -11 -27 -14 -53 -11 -27 4 -31 3 -13 -2 l25 -8 -27
-6 c-15 -3 -25 -1 -22 3 3 5 0 9 -7 9 -34 0 16 24 73 36 l63 12 -77 -1 c-54
-1 -79 -6 -83 -15z"/>
<path d="M2330 3163 c0 -55 6 -68 13 -26 1 12 9 28 15 36 10 12 10 16 0 20
-11 4 -10 6 0 6 18 1 5 21 -14 21 -10 0 -14 -14 -14 -57z"/>
<path d="M2430 3204 l-45 -14 40 6 c22 4 45 7 52 8 18 3 29 16 12 15 -8 -1
-34 -7 -59 -15z"/>
<path d="M1315 3120 c-18 -8 -17 -9 7 -9 15 -1 30 4 33 9 7 12 -12 12 -40 0z"/>
<path d="M1148 3082 l-68 -16 1 -36 1 -35 7 30 c6 28 12 32 86 52 92 25 73 28
-27 5z"/>
<path d="M1298 3085 c-26 -6 -49 -10 -51 -8 -2 2 -7 -38 -10 -89 -6 -90 -3
-114 11 -91 4 6 27 15 52 20 l45 9 5 83 c3 46 3 84 0 86 -3 1 -26 -3 -52 -10z"/>
<path d="M1133 3049 l-33 -10 0 -85 0 -86 38 6 c72 13 72 13 72 70 0 30 3 68
6 85 6 29 5 31 -22 30 -16 0 -44 -5 -61 -10z"/>
<path d="M2135 3030 c-3 -5 -1 -10 4 -10 6 0 11 5 11 10 0 6 -2 10 -4 10 -3 0
-8 -4 -11 -10z"/>
<path d="M548 2933 c6 -2 18 -2 25 0 6 3 1 5 -13 5 -14 0 -19 -2 -12 -5z"/>
<path d="M2189 2939 c-7 -36 -7 -52 1 -71 5 -13 9 -17 9 -10 1 8 9 10 26 6 17
-4 25 -2 25 7 0 11 2 11 9 0 8 -12 12 -12 26 2 15 16 15 17 -2 17 -15 0 -16 2
-3 10 16 10 13 12 -35 23 -11 3 -28 8 -37 12 -10 4 -18 6 -19 4z"/>
<path d="M452 2915 c-30 -7 -55 -15 -56 -17 -2 -1 1 -14 5 -28 7 -24 7 -24 8
-2 1 12 7 24 14 27 6 2 35 10 62 18 62 18 39 19 -33 2z"/>
<path d="M2137 2910 c3 -11 7 -20 9 -20 2 0 4 9 4 20 0 11 -4 20 -9 20 -5 0
-7 -9 -4 -20z"/>
<path d="M2397 2916 c-4 -10 0 -12 14 -9 27 7 34 23 11 23 -11 0 -22 -6 -25
-14z"/>
<path d="M555 2911 c-30 -6 -30 -6 -33 -85 l-3 -79 37 6 c20 3 38 7 39 9 2 2
5 38 8 81 3 54 1 77 -7 76 -6 -1 -24 -4 -41 -8z"/>
<path d="M2343 2913 c9 -2 23 -2 30 0 6 3 -1 5 -18 5 -16 0 -22 -2 -12 -5z"/>
<path d="M2453 2905 c0 -18 19 -15 25 3 2 7 -3 12 -10 12 -8 0 -15 -7 -15 -15z"/>
<path d="M458 2888 l-38 -10 0 -75 c0 -73 1 -75 23 -69 12 3 30 6 40 6 9 0 17
6 17 14 0 11 -9 13 -34 9 l-34 -5 12 36 c10 33 12 34 16 14 3 -13 14 -24 23
-26 15 -3 17 5 17 57 0 34 -1 61 -2 60 -2 -1 -20 -6 -40 -11z"/>
<path d="M1074 2790 c0 -63 1 -89 3 -57 2 31 2 83 0 115 -2 31 -3 5 -3 -58z"/>
<path d="M2132 2855 c0 -16 2 -22 5 -12 2 9 2 23 0 30 -3 6 -5 -1 -5 -18z"/>
<path d="M138 2852 l-58 -14 0 -225 c0 -152 3 -224 10 -221 7 2 11 70 11 193
1 105 4 199 9 211 6 15 21 23 49 28 22 3 43 11 47 17 13 21 -12 26 -68 11z"/>
<path d="M2443 2843 c9 -2 23 -2 30 0 6 3 -1 5 -18 5 -16 0 -22 -2 -12 -5z"/>
<path d="M2373 2833 c9 -2 25 -2 35 0 9 3 1 5 -18 5 -19 0 -27 -2 -17 -5z"/>
<path d="M1104 2745 c0 -49 1 -71 3 -48 2 23 2 64 0 90 -2 26 -3 8 -3 -42z"/>
<path d="M393 2780 c0 -25 2 -35 4 -22 2 12 2 32 0 45 -2 12 -4 2 -4 -23z"/>
<path d="M2198 2803 c6 -2 18 -2 25 0 6 3 1 5 -13 5 -14 0 -19 -2 -12 -5z"/>
<path d="M393 2650 c0 -47 2 -66 4 -42 2 23 2 61 0 85 -2 23 -4 4 -4 -43z"/>
<path d="M423 2625 c0 -27 2 -38 4 -22 2 15 2 37 0 50 -2 12 -4 0 -4 -28z"/>
<path d="M3045 2562 c-66 -9 -112 -18 -103 -20 19 -4 259 26 267 33 7 7 -31 4
-164 -13z"/>
<path d="M392 2540 c0 -14 2 -19 5 -12 2 6 2 18 0 25 -3 6 -5 1 -5 -13z"/>
<path d="M2755 2524 l-90 -13 82 5 c45 2 93 9 105 14 29 11 14 10 -97 -6z"/>
<path d="M2888 2533 c7 -3 16 -2 19 1 4 3 -2 6 -13 5 -11 0 -14 -3 -6 -6z"/>
<path d="M2608 2503 c7 -3 16 -2 19 1 4 3 -2 6 -13 5 -11 0 -14 -3 -6 -6z"/>
<path d="M2363 2473 c9 -2 23 -2 30 0 6 3 -1 5 -18 5 -16 0 -22 -2 -12 -5z"/>
<path d="M2273 2463 c9 -2 25 -2 35 0 9 3 1 5 -18 5 -19 0 -27 -2 -17 -5z"/>
<path d="M2818 2457 c-47 -8 -58 -13 -58 -28 0 -23 8 -24 32 -2 18 16 18 16
12 -3 -4 -10 -12 -25 -18 -33 -9 -12 -7 -13 7 -8 10 4 20 7 23 7 2 0 1 8 -3
18 -3 9 -3 14 2 10 4 -4 14 -3 22 3 8 7 13 8 13 1 0 -16 65 2 68 20 4 21 -29
26 -100 15z"/>
<path d="M2163 2453 c9 -2 25 -2 35 0 9 3 1 5 -18 5 -19 0 -27 -2 -17 -5z"/>
<path d="M3095 2454 c-11 -2 -50 -6 -86 -9 l-66 -6 -7 -106 c-5 -73 -3 -109 5
-119 9 -11 40 -13 143 -10 72 2 132 5 134 5 1 1 2 26 2 56 0 37 -4 55 -12 56
-7 0 -35 0 -61 -1 -48 -2 -48 -1 -45 27 3 25 7 28 45 31 37 3 42 0 46 -20 l4
-23 2 23 c0 12 6 22 11 22 6 0 10 18 10 40 l0 40 -52 -1 c-29 -1 -62 -3 -73
-5z m-63 -107 c-3 -14 -1 -18 6 -13 7 4 12 14 12 22 0 8 5 14 10 14 15 0 12
-16 -10 -57 -15 -29 -21 -33 -26 -19 -6 15 -7 15 -20 -1 -13 -17 -13 -17 -14
0 0 9 -5 26 -12 37 -17 26 0 40 19 15 14 -18 15 -18 9 -1 -8 22 13 53 24 35 4
-6 5 -20 2 -32z"/>
<path d="M2860 2400 c0 -5 11 -10 25 -10 14 0 25 5 25 10 0 6 -11 10 -25 10
-14 0 -25 -4 -25 -10z"/>
<path d="M2663 2355 c0 -27 2 -38 4 -22 2 15 2 37 0 50 -2 12 -4 0 -4 -28z"/>
<path d="M2751 2325 l-2 -50 41 -1 c22 -1 40 2 40 6 0 4 11 5 25 2 20 -3 24
-1 19 12 -6 16 -47 17 -72 2 -7 -4 -12 -2 -12 3 0 6 -7 11 -15 11 -8 0 -15 7
-15 15 0 8 6 15 14 15 8 0 17 6 19 13 4 8 8 8 14 2 12 -15 63 -13 63 2 0 16
12 17 28 1 9 -9 12 -8 12 5 0 20 -55 24 -63 5 -4 -9 -8 -9 -14 -3 -4 6 -24 10
-44 10 l-36 1 -2 -51z"/>
<path d="M3211 2354 c0 -11 3 -14 6 -6 3 7 2 16 -1 19 -3 4 -6 -2 -5 -13z"/>
<path d="M2485 2337 c-4 -10 -5 -21 -1 -24 10 -10 18 4 13 24 -4 17 -4 17 -12
0z"/>
<path d="M2390 2316 c0 -14 -4 -36 -9 -49 -9 -24 -9 -25 42 -25 60 0 87 11 87
36 0 13 -9 18 -40 18 -22 1 -40 -3 -40 -8 0 -5 6 -6 13 -2 7 5 6 0 -3 -11 -14
-16 -15 -16 -18 -1 -2 9 -8 14 -13 11 -5 -4 -6 7 -3 25 4 19 2 30 -5 30 -6 0
-11 -11 -11 -24z"/>
<path d="M2446 2328 c3 -5 10 -6 15 -3 13 9 11 12 -6 12 -8 0 -12 -4 -9 -9z"/>
<path d="M2825 2330 c-3 -5 3 -10 15 -10 12 0 18 5 15 10 -3 6 -10 10 -15 10
-5 0 -12 -4 -15 -10z"/>
<path d="M2272 2310 c0 -14 2 -19 5 -12 2 6 2 18 0 25 -3 6 -5 1 -5 -13z"/>
<path d="M2357 2324 c-4 -4 -7 -19 -6 -33 l0 -26 10 24 c10 26 8 47 -4 35z"/>
<path d="M2300 2312 c0 -5 9 -17 20 -27 23 -21 28 -2 6 21 -16 16 -26 18 -26
6z"/>
<path d="M2890 2294 c0 -8 5 -12 10 -9 6 3 10 10 10 16 0 5 -4 9 -10 9 -5 0
-10 -7 -10 -16z"/>
<path d="M503 2273 c9 -2 23 -2 30 0 6 3 -1 5 -18 5 -16 0 -22 -2 -12 -5z"/>
<path d="M2865 2260 c-8 -13 5 -13 25 0 13 8 13 10 -2 10 -9 0 -20 -4 -23 -10z"/>
<path d="M2740 2229 c0 -26 3 -30 18 -23 9 4 36 6 60 5 32 -1 42 2 42 14 0 8
-4 15 -10 15 -5 0 -10 -5 -10 -11 0 -5 -6 -7 -12 -3 -7 5 -28 7 -47 5 -27 -2
-33 0 -28 13 4 9 2 16 -3 16 -6 0 -10 -14 -10 -31z"/>
<path d="M2788 2253 c7 -3 16 -2 19 1 4 3 -2 6 -13 5 -11 0 -14 -3 -6 -6z"/>
<path d="M233 2243 c9 -2 23 -2 30 0 6 3 -1 5 -18 5 -16 0 -22 -2 -12 -5z"/>
<path d="M735 2242 c-5 -4 -11 -47 -12 -95 -1 -76 1 -88 13 -83 9 3 24 6 35 6
10 0 19 5 19 10 0 6 -7 10 -15 10 -22 0 -18 21 5 27 24 6 16 23 -11 23 -14 0
-19 6 -18 28 2 23 2 24 6 5 3 -14 11 -23 21 -22 11 0 13 2 4 6 -10 4 -9 8 5
19 17 13 17 13 1 14 -10 0 -18 7 -18 16 0 14 3 14 15 4 9 -8 15 -8 15 -2 0 6
3 17 6 26 5 13 -1 16 -27 16 -19 0 -38 -4 -44 -8z"/>
<path d="M2722 2230 c0 -14 2 -19 5 -12 2 6 2 18 0 25 -3 6 -5 1 -5 -13z"/>
<path d="M128 2233 c6 -2 18 -2 25 0 6 3 1 5 -13 5 -14 0 -19 -2 -12 -5z"/>
<path d="M2870 2231 c0 -5 7 -11 15 -15 9 -3 15 0 15 9 0 8 -7 15 -15 15 -8 0
-15 -4 -15 -9z"/>
<path d="M840 2220 c-1 -8 -4 -35 -6 -59 -4 -36 -3 -43 8 -35 7 6 30 12 52 13
37 3 38 1 34 -23 -5 -24 -3 -26 31 -25 23 1 28 3 14 6 -25 5 -31 36 -10 50 8
5 0 10 -23 13 -27 4 -36 10 -38 28 -2 16 -10 22 -27 22 -13 0 -26 6 -28 13 -4
8 -6 7 -7 -3z"/>
<path d="M2380 2220 c-13 -8 -12 -10 3 -10 9 0 17 5 17 10 0 12 -1 12 -20 0z"/>
<path d="M2651 2214 c0 -11 3 -14 6 -6 3 7 2 16 -1 19 -3 4 -6 -2 -5 -13z"/>
<path d="M510 2205 c-69 -8 -126 -14 -127 -14 -1 -1 -1 -9 -1 -18 0 -10 0 -22
-2 -28 -1 -5 -2 -29 -1 -52 l1 -43 58 0 c33 0 100 3 150 6 l92 7 0 78 c0 76
-1 79 -22 78 -13 -1 -79 -7 -148 -14z m40 -25 c0 -5 20 -10 45 -10 41 0 45 -2
45 -25 0 -14 -4 -25 -10 -25 -5 0 -10 7 -10 16 0 9 -7 14 -17 12 -9 -2 -15 -7
-14 -12 4 -12 -20 -26 -46 -26 -19 0 -23 5 -23 33 0 19 3 37 7 40 10 10 23 8
23 -3z m-76 -47 c-9 -39 -14 -41 -15 -7 0 16 -3 24 -5 17 -3 -7 -12 -9 -20 -6
-9 3 -14 -2 -14 -16 0 -12 -6 -21 -15 -21 -9 0 -15 9 -15 24 0 26 13 33 63 35
25 1 27 -1 21 -26z"/>
<path d="M2300 2210 c0 -5 5 -10 10 -10 6 0 10 5 10 10 0 6 -4 10 -10 10 -5 0
-10 -4 -10 -10z"/>
<path d="M2338 2213 c7 -3 16 -2 19 1 4 3 -2 6 -13 5 -11 0 -14 -3 -6 -6z"/>
<path d="M318 2203 c-13 -3 -17 -20 -20 -88 -2 -46 0 -81 4 -77 4 4 8 38 10
75 2 65 4 68 25 64 17 -3 23 0 23 14 0 19 -8 21 -42 12z"/>
<path d="M115 2165 c-61 -7 -97 -13 -82 -13 16 -1 25 -6 22 -12 -3 -5 -1 -10
4 -10 6 0 11 5 11 10 0 6 7 10 15 10 23 0 19 -47 -4 -53 -13 -3 -21 1 -24 12
-4 14 -5 14 -6 -1 -1 -17 -11 -22 -38 -19 -9 1 -13 -11 -13 -34 l0 -37 113 7
c157 9 147 4 147 86 0 60 -2 69 -17 68 -10 -1 -67 -7 -128 -14z m83 -51 c-2
-12 -14 -17 -40 -18 -32 -1 -37 2 -41 24 -6 26 3 44 10 23 7 -19 53 -16 61 5
6 16 7 16 10 0 2 -10 2 -25 0 -34z"/>
<path d="M2258 2163 c6 -2 18 -2 25 0 6 3 1 5 -13 5 -14 0 -19 -2 -12 -5z"/>
<path d="M20 2120 c-9 -6 -10 -10 -3 -10 6 0 15 5 18 10 8 12 4 12 -15 0z"/>
<path d="M830 2095 c0 -8 4 -15 10 -15 5 0 7 7 4 15 -4 8 -8 15 -10 15 -2 0
-4 -7 -4 -15z"/>
<path d="M2950 1181 c0 -5 5 -13 10 -16 6 -3 10 -2 10 4 0 5 -4 13 -10 16 -5
3 -10 2 -10 -4z"/>
<path d="M2499 1178 c-9 -31 -7 -48 6 -48 8 0 18 0 22 -1 18 -2 12 20 -7 26
-11 3 -18 11 -15 16 4 5 4 9 1 9 -3 0 -6 -1 -7 -2z"/>
<path d="M3057 1146 c-5 -15 -6 -31 -3 -34 8 -8 18 25 14 45 -3 13 -6 10 -11
-11z"/>
<path d="M2450 1140 c-8 -5 -12 -12 -9 -15 4 -3 12 1 19 10 14 17 11 19 -10 5z"/>
<path d="M2960 1134 c0 -11 -5 -25 -12 -32 -9 -9 -9 -12 0 -12 13 0 28 47 18
57 -3 4 -6 -3 -6 -13z"/>
<path d="M1 1124 c0 -11 3 -14 6 -6 3 7 2 16 -1 19 -3 4 -6 -2 -5 -13z"/>
<path d="M2454 1106 c-10 -8 -14 -18 -10 -25 6 -9 12 -7 22 6 13 17 13 17 14
-2 0 -17 2 -17 10 -5 13 20 12 27 -4 33 -8 3 -22 0 -32 -7z"/>
<path d="M2406 1074 c-9 -23 -2 -28 13 -10 7 8 8 17 3 20 -6 3 -13 -1 -16 -10z"/>
<path d="M2576 1077 c3 -10 9 -15 12 -12 3 3 0 11 -7 18 -10 9 -11 8 -5 -6z"/>
<path d="M2498 1063 c-24 -28 -58 -100 -59 -125 0 -21 -1 -21 -8 -4 -5 14 -10
16 -15 8 -4 -7 -5 -16 -2 -20 2 -4 -6 -29 -20 -56 -13 -26 -24 -56 -24 -66 0
-10 -4 -22 -10 -25 -13 -8 -60 -108 -60 -128 0 -8 -3 -17 -7 -19 -7 -3 -56
-104 -67 -138 -3 -12 -5 -11 -5 3 -1 9 -6 17 -12 17 -6 0 -9 -7 -5 -15 6 -17
-11 -74 -30 -96 -8 -8 -14 -25 -14 -37 0 -11 -5 -24 -11 -28 -8 -4 -9 1 -5 17
7 23 6 23 -8 6 -8 -11 -18 -36 -21 -58 -4 -22 -14 -45 -23 -52 -10 -6 -17 -18
-18 -24 -2 -29 -5 -32 -19 -27 -10 4 -15 0 -15 -16 0 -14 4 -19 13 -15 6 4 4
0 -7 -9 -10 -8 -16 -21 -13 -28 2 -7 -4 -30 -15 -51 -10 -20 -15 -37 -12 -37
4 0 -1 -9 -11 -20 -18 -20 -17 -20 397 -20 l415 0 -10 42 c-5 24 -18 70 -29
102 -13 41 -16 62 -9 69 8 8 11 4 11 -12 0 -12 7 -46 16 -74 8 -29 20 -69 26
-90 6 -21 16 -36 22 -34 6 3 9 11 8 18 -2 8 -19 68 -37 134 -31 110 -47 180
-91 380 -9 39 -26 115 -39 170 -36 153 -37 161 -28 150 5 -5 14 -32 21 -60 15
-70 36 -158 73 -310 17 -72 33 -139 35 -150 12 -63 65 -255 79 -285 l16 -35
-6 35 c-4 19 -10 44 -15 55 -5 11 -17 58 -29 105 -11 47 -27 114 -35 150 -46
191 -86 385 -85 408 1 24 2 23 10 -8 10 -37 36 -155 45 -204 11 -58 25 -73 18
-21 -8 65 2 55 20 -21 18 -76 20 -30 2 56 -8 36 -17 91 -21 123 -4 31 -11 60
-16 63 -5 3 -10 17 -10 32 -1 27 -1 27 -8 -3 -7 -29 -8 -28 -24 27 -9 31 -17
62 -17 70 -1 14 -49 108 -50 96 0 -4 9 -32 21 -63 11 -30 19 -61 16 -68 -2 -6
-12 13 -22 43 -10 30 -24 69 -32 85 l-14 30 5 -40 c5 -36 4 -37 -6 -15 -35 79
-62 130 -69 130 -4 0 3 -25 17 -55 25 -58 29 -75 16 -75 -4 0 -15 23 -25 50
-20 55 -42 70 -25 18 20 -65 19 -72 -3 -35 -13 20 -30 37 -38 37 -10 0 -8 7 9
25 13 14 21 27 18 30 -2 3 -12 -3 -20 -12z m2 -79 c0 -8 -4 -14 -10 -14 -5 0
-10 9 -10 21 0 11 5 17 10 14 6 -3 10 -13 10 -21z m-23 -59 c0 -8 -4 -12 -9
-9 -5 3 -6 10 -3 15 9 13 12 11 12 -6z m160 -47 c-3 -8 -6 -5 -6 6 -1 11 2 17
5 13 3 -3 4 -12 1 -19z m118 -170 c3 -24 8 -56 11 -73 3 -26 3 -27 -5 -8 -15
33 -29 123 -21 123 5 0 11 -19 15 -42z m-98 -70 c-3 -8 -6 -5 -6 6 -1 11 2 17
5 13 3 -3 4 -12 1 -19z m20 -100 c-3 -7 -5 -2 -5 12 0 14 2 19 5 13 2 -7 2
-19 0 -25z m17 -33 c3 -8 1 -15 -4 -15 -6 0 -10 7 -10 15 0 8 2 15 4 15 2 0 6
-7 10 -15z m13 -102 c-3 -10 -5 -2 -5 17 0 19 2 27 5 18 2 -10 2 -26 0 -35z
m23 -37 c0 -8 -4 -18 -10 -21 -5 -3 -10 3 -10 14 0 12 5 21 10 21 6 0 10 -6
10 -14z m13 -71 c4 -8 2 -17 -3 -20 -6 -4 -10 3 -10 14 0 25 6 27 13 6z m-6
-167 c-3 -8 -6 -5 -6 6 -1 11 2 17 5 13 3 -3 4 -12 1 -19z m32 -103 l0 -20 -9
20 c-5 11 -9 27 -9 35 -1 13 0 13 9 0 5 -8 9 -24 9 -35z"/>
<path d="M2943 990 c0 -41 2 -58 4 -37 2 20 2 54 0 75 -2 20 -4 3 -4 -38z"/>
<path d="M2417 1043 c-14 -13 -6 -23 15 -20 28 5 36 27 11 27 -11 0 -23 -3
-26 -7z"/>
<path d="M3033 1000 c0 -25 2 -35 4 -22 2 12 2 32 0 45 -2 12 -4 2 -4 -23z"/>
<path d="M3092 1020 c0 -14 2 -19 5 -12 2 6 2 18 0 25 -3 6 -5 1 -5 -13z"/>
<path d="M2377 1024 c-4 -4 -7 -19 -6 -33 l0 -26 10 24 c10 26 8 47 -4 35z"/>
<path d="M3002 1000 c0 -14 2 -19 5 -12 2 6 2 18 0 25 -3 6 -5 1 -5 -13z"/>
<path d="M2328 1003 c6 -2 18 -2 25 0 6 3 1 5 -13 5 -14 0 -19 -2 -12 -5z"/>
<path d="M2345 956 c-3 -9 -7 -23 -10 -31 -2 -8 0 -17 5 -20 4 -3 11 9 15 26
7 32 -1 53 -10 25z"/>
<path d="M90 940 c0 -5 9 -10 20 -10 11 0 20 5 20 10 0 6 -9 10 -20 10 -11 0
-20 -4 -20 -10z"/>
<path d="M2311 924 c0 -11 3 -14 6 -6 3 7 2 16 -1 19 -3 4 -6 -2 -5 -13z"/>
<path d="M2701 914 c0 -11 3 -14 6 -6 3 7 2 16 -1 19 -3 4 -6 -2 -5 -13z"/>
<path d="M90 900 c0 -7 24 -20 36 -20 13 0 1 19 -16 23 -11 3 -20 2 -20 -3z"/>
<path d="M2275 900 c3 -5 8 -10 11 -10 2 0 4 5 4 10 0 6 -5 10 -11 10 -5 0 -7
-4 -4 -10z"/>
<path d="M3185 871 c3 -5 1 -12 -5 -16 -5 -3 -10 -2 -10 3 0 6 -9 8 -21 5 -12
-3 -16 -9 -10 -12 12 -8 -191 -71 -229 -71 -14 0 -33 -7 -43 -15 -11 -7 -26
-11 -35 -8 -12 5 -14 1 -9 -18 4 -13 10 -42 13 -64 3 -22 14 -92 24 -155 10
-63 21 -137 25 -164 5 -34 12 -50 24 -53 14 -3 18 -14 17 -48 -1 -25 -4 -38
-9 -32 -15 21 4 -147 19 -170 12 -20 12 -24 -8 -38 -21 -14 -10 -15 135 -15
l157 0 0 440 c-1 434 -1 440 -21 440 -11 0 -18 -4 -14 -9z m13 -159 c2 -14 -2
-22 -12 -22 -8 0 -20 -8 -25 -17 -10 -16 -10 -17 -11 -1 -1 54 41 89 48 40z
m-168 -4 c0 -19 -2 -20 -10 -8 -13 19 -13 30 0 30 6 0 10 -10 10 -22z m-40 -7
c0 -5 3 -16 6 -25 4 -12 0 -16 -15 -16 -22 0 -25 8 -15 34 7 17 24 22 24 7z
m130 -15 c0 -14 -4 -28 -10 -31 -6 -4 -10 7 -10 24 0 17 5 31 10 31 6 0 10
-11 10 -24z m-190 0 c0 -8 -4 -17 -9 -21 -12 -7 -24 12 -16 25 9 15 25 12 25
-4z m61 -46 c5 0 9 -9 9 -20 0 -13 -5 -18 -15 -13 -9 3 -24 -2 -35 -12 -18
-16 -18 -16 -8 19 8 25 16 35 26 31 7 -3 18 -5 23 -5z m-114 -52 c-2 -13 -4
-5 -4 17 -1 22 1 32 4 23 2 -10 2 -28 0 -40z m303 -39 c0 -44 -3 -60 -12 -57
-7 3 -14 12 -16 21 -3 17 16 97 23 97 3 0 5 -27 5 -61z m-90 7 c0 -35 -4 -45
-20 -49 -17 -4 -20 0 -20 28 0 43 9 65 26 65 10 0 14 -13 14 -44z m-115 -85
c3 -5 1 -12 -4 -15 -5 -3 -11 1 -15 9 -6 16 9 21 19 6z m101 -58 c-10 -26 -18
-8 -9 23 5 21 8 24 11 11 2 -10 1 -25 -2 -34z m-96 11 c0 -2 -7 -4 -15 -4 -8
0 -15 4 -15 10 0 5 7 7 15 4 8 -4 15 -8 15 -10z m164 -52 c4 -29 3 -41 -4 -37
-5 3 -10 25 -10 47 0 51 5 47 14 -10z m-164 19 c0 -3 -4 -12 -9 -20 -7 -11
-11 -10 -20 7 -15 28 -14 31 9 25 11 -3 20 -8 20 -12z m62 -64 c-9 -19 -11
-13 -10 33 0 53 1 54 10 22 8 -23 8 -39 0 -55z m37 -6 c-7 -23 -15 -41 -19
-41 -4 0 0 20 8 44 20 55 28 53 11 -3z m8 -153 c-3 -8 -6 -5 -6 6 -1 11 2 17
5 13 3 -3 4 -12 1 -19z"/>
<path d="M2270 860 c0 -5 5 -10 10 -10 6 0 10 5 10 10 0 6 -4 10 -10 10 -5 0
-10 -4 -10 -10z"/>
<path d="M2306 845 c-9 -35 -1 -43 14 -15 8 14 8 26 2 32 -6 6 -12 0 -16 -17z"/>
<path d="M2280 815 c0 -11 -3 -30 -6 -42 -4 -13 -2 -23 4 -23 14 0 22 39 12
63 -8 21 -9 21 -10 2z"/>
<path d="M2340 785 c0 -8 2 -15 4 -15 2 0 6 7 10 15 3 8 1 15 -4 15 -6 0 -10
-7 -10 -15z"/>
<path d="M2786 696 c2 -16 4 -34 4 -40 0 -6 4 -4 10 4 5 8 5 19 1 25 -5 5 -11
17 -14 25 -2 8 -3 2 -1 -14z"/>
<path d="M2244 692 c-4 -18 -10 -32 -14 -32 -5 0 -6 10 -3 23 4 15 2 19 -5 12
-5 -5 -12 -29 -14 -52 -3 -38 -1 -43 17 -44 16 0 14 -3 -10 -14 -16 -7 -35
-26 -42 -41 -10 -23 -12 -25 -13 -9 -1 40 -20 -8 -20 -51 0 -45 25 -80 36 -51
3 9 3 21 0 26 -4 6 0 27 9 48 13 30 18 35 25 23 7 -11 10 -7 10 16 0 19 6 34
15 38 13 4 13 9 4 25 -10 15 -8 24 10 47 13 16 25 28 28 26 13 -10 8 5 -8 22
-19 19 -19 19 -25 -12z"/>
<path d="M2275 650 c-3 -5 -1 -10 4 -10 6 0 11 5 11 10 0 6 -2 10 -4 10 -3 0
-8 -4 -11 -10z"/>
<path d="M2812 560 c-1 -8 5 -60 13 -115 8 -55 15 -104 15 -108 0 -5 4 -6 9
-3 5 3 5 22 0 43 -5 21 -15 74 -23 118 -7 44 -14 73 -14 65z"/>
<path d="M2831 544 c0 -11 3 -14 6 -6 3 7 2 16 -1 19 -3 4 -6 -2 -5 -13z"/>
<path d="M2782 460 c0 -14 4 -36 8 -50 l8 -25 0 25 c0 14 -4 36 -8 50 l-8 25
0 -25z"/>
<path d="M2870 315 c0 -14 4 -25 9 -25 4 0 6 11 3 25 -2 14 -6 25 -8 25 -2 0
-4 -11 -4 -25z"/>
<path d="M2007 102 c-10 -10 -17 -22 -17 -27 0 -4 9 2 20 15 11 13 20 25 20
27 0 7 -8 2 -23 -15z"/>
<path d="M1652 40 c0 -19 2 -27 5 -17 2 9 2 25 0 35 -3 9 -5 1 -5 -18z"/>
<path d="M1955 49 c-4 -6 -1 -15 6 -20 21 -13 31 -11 27 8 -4 20 -24 28 -33
12z"/>
</g>
</svg>
