<?xml version="1.0" standalone="no"?>
<!DOCTYPE svg PUBLIC "-//W3C//DTD SVG 20010904//EN"
 "http://www.w3.org/TR/2001/REC-SVG-20010904/DTD/svg10.dtd">
<svg version="1.0" xmlns="http://www.w3.org/2000/svg"
 width="523.000000pt" height="555.000000pt" viewBox="0 0 523.000000 555.000000"
 preserveAspectRatio="xMidYMid meet">

<g transform="translate(0.000000,555.000000) scale(0.100000,-0.100000)"
fill="#000000" stroke="none">
<path d="M237 5539 c-9 -6 -15 -14 -13 -18 11 -17 16 -70 7 -75 -13 -8 -1 -57
13 -49 6 3 3 -3 -7 -13 -15 -16 -19 -17 -27 -4 -8 12 -10 11 -10 -7 0 -16 6
-23 19 -23 15 0 20 -9 23 -41 2 -24 -2 -49 -10 -60 -7 -10 -10 -24 -7 -29 10
-17 13 -80 4 -80 -5 0 -9 -7 -9 -15 0 -8 -9 -15 -20 -15 -22 0 -26 -10 -9 -27
15 -15 21 -93 7 -93 -7 0 -6 -5 1 -14 15 -18 -2 -56 -24 -56 -21 0 -18 -23 5
-40 11 -8 20 -20 20 -26 0 -7 6 -15 13 -17 6 -3 7 -6 2 -6 -6 -1 -9 -18 -7
-41 4 -44 -2 -49 -30 -23 -10 9 -21 13 -25 9 -4 -4 -1 -11 7 -16 8 -6 10 -10
4 -10 -14 0 -11 -34 5 -54 12 -14 10 -16 -15 -17 -19 -1 -23 -3 -10 -6 16 -4
17 -11 11 -58 -5 -45 -4 -53 12 -59 14 -6 15 -9 4 -15 -7 -5 -13 -21 -13 -35
0 -16 -8 -31 -20 -37 -15 -8 -18 -17 -13 -37 3 -15 13 -32 21 -38 12 -10 12
-12 -5 -17 -17 -4 -19 -11 -15 -48 10 -91 10 -274 1 -286 -5 -7 -23 -13 -39
-13 -16 0 -27 -4 -24 -9 3 -5 16 -7 29 -4 16 3 18 2 8 -5 -16 -12 3 -27 21
-16 7 4 8 3 4 -4 -4 -7 -3 -12 3 -12 5 0 9 -9 8 -20 -1 -11 -7 -20 -14 -20 -8
0 -16 -7 -19 -15 -4 -8 -13 -15 -22 -15 -8 0 -12 -3 -8 -7 7 -8 11 -9 52 -11
17 -2 21 -8 20 -32 -1 -36 -12 -39 -20 -5 -4 16 -13 25 -27 25 -16 0 -20 -5
-17 -27 2 -19 -5 -36 -19 -51 -21 -21 -27 -39 -24 -68 1 -7 -8 -14 -19 -17
-20 -5 -20 -12 -20 -1861 l0 -1856 210 0 c115 0 210 2 210 3 0 2 -9 30 -21 63
-21 62 -51 362 -51 519 0 71 59 424 91 545 36 135 110 436 120 489 23 118 81
301 143 447 56 132 67 150 113 189 27 24 78 55 113 69 35 15 171 82 303 148
165 84 238 126 235 135 -4 8 12 25 40 42 25 16 56 40 68 53 139 138 209 201
213 191 3 -9 10 -10 23 -3 16 8 22 6 35 -14 18 -27 22 -46 31 -132 4 -39 2
-69 -5 -82 -9 -18 -8 -27 6 -49 l18 -27 3 49 c3 56 20 99 54 136 13 14 31 35
41 46 28 32 47 178 47 368 0 147 -3 176 -20 213 -22 50 -50 175 -50 228 0 29
-3 35 -16 30 -9 -3 -22 -6 -31 -6 -10 0 -13 -6 -9 -17 4 -12 -2 -8 -17 8 -12
14 -30 29 -39 32 -9 3 -25 18 -34 32 -21 31 -54 148 -54 189 0 28 88 216 101
216 4 0 12 -21 19 -46 12 -41 11 -48 -2 -58 -18 -13 -30 -86 -13 -80 20 8 45
62 38 81 -3 10 -3 15 1 11 4 -3 14 -30 21 -60 l13 -53 1 41 c1 59 40 207 58
221 12 9 12 16 3 33 -15 28 2 82 41 132 16 20 29 41 29 46 0 5 6 15 14 21 8 7
25 35 39 64 28 58 121 166 176 203 20 14 54 38 76 54 22 16 49 29 61 30 11 0
24 3 28 7 29 30 210 33 238 5 7 -7 40 -12 78 -12 65 0 157 -20 169 -38 3 -4
23 -18 43 -31 21 -12 44 -34 52 -49 38 -70 55 -110 61 -147 3 -22 17 -68 31
-102 40 -102 39 -103 -63 -103 -77 0 -90 -3 -120 -26 -51 -38 -43 -48 35 -40
37 3 81 9 99 12 27 5 37 1 62 -24 30 -30 33 -58 8 -89 -11 -15 -53 -17 -62 -3
-3 6 -18 10 -33 9 l-27 -1 28 -10 c45 -16 31 -29 -25 -23 -41 5 -49 4 -35 -5
9 -6 21 -9 26 -6 18 11 131 -34 152 -61 13 -17 13 -17 -13 0 -84 53 -207 63
-291 22 l-52 -26 30 26 c26 22 28 25 10 25 -14 1 -6 9 25 25 50 27 39 33 -17
10 -19 -8 -40 -15 -45 -15 -6 0 -8 7 -4 15 3 8 0 15 -7 15 -22 -1 -46 -26 -52
-56 -4 -16 -9 -37 -12 -46 -3 -12 1 -18 11 -18 9 0 16 -7 16 -16 0 -10 -6 -14
-15 -10 -8 3 -15 1 -15 -4 0 -6 4 -10 9 -10 5 0 5 -16 0 -39 -5 -24 -5 -49 0
-63 8 -20 10 -17 10 20 1 23 5 50 10 60 5 9 14 29 20 45 9 23 13 26 29 16 15
-9 24 -6 52 20 53 48 58 43 72 -56 1 -7 13 -14 27 -15 14 0 31 -2 36 -3 64
-14 76 -19 71 -30 -3 -8 6 -16 22 -20 15 -3 37 -13 50 -21 21 -14 22 -20 19
-95 -2 -44 -1 -82 3 -84 12 -8 58 67 70 115 14 51 7 110 -17 146 -8 14 -13 27
-10 30 2 3 15 -16 27 -41 19 -39 21 -56 16 -103 -4 -31 -8 -69 -9 -84 -1 -16
-6 -28 -10 -27 -11 0 -48 -47 -46 -58 1 -4 -1 -15 -4 -23 -10 -25 -47 -132
-69 -200 -12 -36 -24 -67 -28 -70 -4 -3 -13 -20 -21 -38 -8 -18 -19 -30 -25
-28 -8 3 -10 -3 -6 -16 3 -14 1 -19 -6 -14 -7 4 -12 1 -12 -6 -1 -22 -27 -49
-48 -51 -17 -1 -19 -4 -9 -16 9 -12 9 -13 0 -7 -8 4 -13 1 -13 -8 0 -9 -8 -16
-17 -16 -10 0 -27 -7 -37 -15 -10 -8 -23 -12 -27 -9 -5 3 -9 0 -9 -5 0 -6 -6
-11 -12 -11 -7 0 -32 -20 -55 -44 -57 -59 -115 -86 -184 -86 -30 0 -49 -4 -42
-8 15 -9 46 -82 36 -82 -5 0 -1 -5 7 -11 12 -8 12 -12 2 -16 -10 -4 -9 -9 5
-19 10 -8 14 -14 8 -13 -22 3 -26 -2 -11 -16 8 -8 31 -15 50 -15 40 0 37 5 40
-97 0 -29 -2 -53 -6 -53 -5 0 -8 -7 -8 -16 0 -9 5 -12 12 -8 8 5 9 0 6 -14 -4
-12 -3 -20 2 -17 8 5 20 -28 20 -60 0 -11 11 -32 25 -47 14 -15 25 -35 26 -45
0 -12 2 -13 6 -5 4 10 9 8 19 -6 13 -19 16 -17 72 40 53 55 61 59 80 49 12 -6
22 -18 22 -25 0 -7 11 -30 25 -50 21 -31 23 -42 16 -81 -7 -35 -5 -45 6 -47 8
-2 21 -18 28 -35 11 -26 11 -35 1 -45 -22 -23 -25 -45 -10 -73 8 -16 11 -31 7
-34 -13 -9 -16 -91 -4 -91 6 0 11 6 11 14 0 22 37 8 56 -21 14 -22 14 -32 4
-72 -7 -25 -23 -55 -35 -66 -41 -36 -73 -125 -45 -125 22 0 8 -56 -29 -115
-22 -35 -37 -66 -34 -69 4 -3 1 -6 -5 -6 -7 0 -12 -4 -12 -10 0 -5 5 -9 12 -7
7 1 15 -11 18 -28 5 -23 1 -38 -18 -63 -13 -18 -21 -36 -17 -40 3 -3 9 -2 13
3 4 6 32 11 62 13 30 2 59 7 65 12 7 5 29 12 50 15 21 2 45 11 55 20 33 30 59
15 55 -33 -1 -12 3 -22 9 -22 5 0 0 -9 -12 -20 -12 -11 -26 -20 -31 -20 -5 0
-12 -4 -16 -10 -5 -9 102 -5 133 5 22 8 13 -10 -14 -26 l-27 -16 53 -2 c29 0
55 -2 57 -5 10 -10 -11 -56 -28 -61 -28 -9 -24 -28 4 -21 13 3 39 1 57 -4 29
-8 40 -6 70 14 19 13 48 35 63 50 15 14 32 26 38 26 5 0 9 5 9 11 0 5 5 7 10
4 15 -10 50 5 50 20 0 28 34 85 54 91 30 10 72 56 90 97 8 21 20 37 27 37 7 0
8 5 3 12 -11 16 -11 39 -1 55 4 7 8 36 8 65 0 29 0 73 1 98 2 73 -7 142 -24
180 -27 58 -30 78 -17 114 11 30 15 33 36 25 23 -8 23 -8 23 60 0 38 -7 88
-15 111 -8 23 -15 49 -15 56 0 43 123 -18 205 -100 28 -28 67 -82 87 -121 34
-67 68 -193 68 -256 0 -16 11 -89 24 -162 39 -209 65 -485 86 -917 6 -107 16
-276 24 -375 8 -99 18 -246 22 -327 l6 -148 258 0 257 0 -1 40 c0 26 -5 39
-12 36 -7 -3 -14 4 -17 14 -3 12 0 17 8 14 9 -4 11 3 8 20 -3 14 -10 26 -15
26 -5 0 -6 5 -3 10 4 6 1 19 -7 28 -12 15 -11 16 5 3 15 -12 17 -11 17 7 0 12
-5 24 -11 27 -5 4 -9 17 -8 28 1 12 -1 29 -5 38 -4 8 -2 28 4 43 5 15 6 25 1
21 -6 -3 -11 12 -13 32 -3 34 -6 38 -28 36 -24 -3 -24 -2 -6 12 13 10 17 21
12 39 -3 14 -2 28 4 31 18 11 11 32 -12 39 -18 4 -20 8 -11 17 10 10 8 15 -5
25 -15 12 -15 15 -2 24 12 8 12 12 2 18 -7 5 -10 16 -6 25 4 12 1 17 -10 17
-20 0 -21 26 -1 34 8 3 15 11 15 18 0 10 -2 10 -9 -1 -10 -15 -15 -8 -25 33
-5 19 -2 36 9 52 13 20 13 24 1 24 -17 0 -30 59 -16 75 8 9 8 14 1 17 -13 4
-17 46 -6 71 5 12 3 17 -9 17 -18 0 -21 15 -6 25 7 4 7 11 2 18 -5 7 -8 29 -5
51 3 27 -1 44 -14 58 -16 18 -16 19 1 12 10 -4 22 0 29 10 7 9 23 15 36 14 13
-2 26 2 28 9 2 7 -22 16 -66 24 -58 10 -71 16 -71 31 0 10 6 18 14 18 21 0 40
27 24 33 -9 4 -9 6 -1 6 6 1 19 -6 28 -15 9 -9 19 -13 23 -10 3 4 0 11 -8 16
-13 8 -12 12 5 24 16 12 17 15 5 16 -9 0 -21 -5 -27 -11 -8 -8 -13 -8 -17 0
-4 6 -2 11 3 11 6 0 11 7 11 15 0 9 7 18 15 22 9 3 15 13 13 22 -1 9 1 22 6
29 16 26 -5 26 -29 -1 -28 -30 -32 -42 -10 -33 20 7 19 4 -5 -16 -19 -17 -19
-16 -14 15 3 18 6 41 7 52 1 11 6 25 10 32 4 7 0 16 -10 22 -16 9 -16 10 5 11
12 0 22 4 22 9 0 5 -10 12 -22 16 -20 6 -20 8 -5 12 18 5 24 23 7 23 -5 0 -10
7 -10 15 0 8 -7 15 -15 15 -8 0 -15 4 -15 10 0 5 3 9 8 9 17 -3 19 3 12 36 -4
19 -4 35 0 37 15 5 23 58 10 58 -9 0 -9 4 -3 12 13 17 24 90 13 83 -5 -3 -11
-1 -15 5 -3 5 -2 10 4 10 16 0 24 40 13 64 -28 58 -35 93 -20 102 5 3 4 12 -3
20 -9 11 -7 14 13 14 21 0 25 4 22 26 -3 35 -22 54 -33 35 -6 -8 -11 -9 -15
-3 -3 6 -1 14 5 17 5 4 8 13 5 21 -3 8 0 14 7 14 7 0 6 4 -3 10 -12 7 -12 14
-4 27 6 10 8 30 4 44 -6 22 -5 26 10 22 14 -4 17 0 13 21 -3 14 -11 26 -17 26
-8 0 -13 19 -15 47 -1 26 -4 50 -7 55 -3 4 -1 8 5 8 12 0 2 32 -13 42 -7 5 -3
8 9 8 13 0 16 3 8 8 -17 11 -28 62 -13 62 8 0 10 9 6 25 -5 19 -2 25 9 25 29
0 5 51 -29 63 -5 2 -3 13 3 26 11 19 10 26 -5 42 -15 17 -15 19 0 25 20 8 20
23 -1 46 -9 10 -11 18 -5 18 6 0 12 -3 15 -7 2 -5 2 -2 1 5 -2 6 2 12 8 12 6
0 1 9 -12 20 -13 11 -18 20 -12 20 7 0 12 7 12 16 0 8 4 13 9 9 5 -3 12 -1 15
4 5 8 -23 26 -29 19 -1 -2 -6 -10 -11 -20 -8 -14 -11 -13 -28 10 -17 22 -17
25 -3 19 21 -8 77 2 77 14 0 5 -9 9 -20 9 -13 0 -18 5 -14 15 5 11 -1 15 -22
15 -23 0 -26 -2 -14 -10 8 -5 10 -10 4 -10 -34 0 -18 46 18 53 17 3 14 5 -9 6
-21 0 -33 6 -33 15 0 8 6 14 13 13 39 -1 49 3 38 16 -8 10 -7 17 1 25 9 9 4
12 -21 12 -39 0 -32 20 7 21 l27 0 -25 11 -25 10 22 10 c32 15 37 36 7 30 -17
-3 -24 0 -24 12 0 9 4 16 10 16 12 0 34 40 26 47 -3 3 -15 -5 -27 -18 -14 -16
-19 -18 -15 -7 3 9 0 18 -6 20 -18 6 1 28 23 28 10 0 19 6 19 13 0 9 -11 12
-37 9 l-38 -5 37 36 c28 27 33 36 21 39 -13 2 -17 16 -18 61 -2 49 0 57 16 57
11 0 19 5 19 10 0 6 -8 10 -18 10 -16 0 -18 9 -17 63 l2 64 -33 -3 c-18 -1
-37 -4 -41 -7 -4 -2 -17 4 -27 14 -22 21 -6 25 24 7 17 -11 22 -10 29 1 5 8
16 11 29 7 19 -6 21 -4 18 28 -2 19 -7 40 -11 47 -5 8 -4 10 3 5 7 -4 12 -1
12 9 0 9 -9 19 -20 22 -13 3 -20 14 -20 29 0 13 -4 24 -10 24 -5 0 -10 5 -10
10 0 6 11 10 24 10 14 0 28 5 31 10 4 6 -10 10 -34 10 -22 0 -43 5 -46 10 -3
6 5 10 19 10 14 0 28 5 32 11 3 6 -1 10 -12 9 -11 -1 -26 -2 -34 -1 -13 1 -13
3 -1 10 8 5 20 7 27 4 6 -2 15 0 19 6 4 7 -4 11 -19 11 -14 0 -26 5 -26 10 0
6 6 10 14 10 9 0 13 10 12 25 -1 17 -7 25 -19 25 -11 0 -17 5 -14 13 2 6 10
11 18 10 10 -2 14 8 14 31 0 27 -3 32 -19 28 -16 -4 -17 -2 -7 16 6 12 19 26
29 31 9 6 11 11 5 11 -7 0 -13 9 -13 19 0 14 -9 20 -37 24 -43 5 -56 1 -47
-15 4 -6 22 -8 40 -5 19 3 34 2 34 -3 0 -8 -28 -21 -58 -26 -20 -4 -29 -16
-15 -21 7 -2 9 -11 6 -19 -3 -8 0 -20 6 -28 9 -10 6 -17 -14 -30 l-25 -16 0
83 c0 51 5 88 12 95 8 8 9 12 1 12 -8 0 -10 36 -8 123 3 67 5 123 5 125 2 4 1
112 0 117 -2 6 -2 40 -1 121 1 54 2 56 26 52 13 -3 26 -1 28 5 2 7 10 6 23 -1
17 -10 17 -11 2 -12 -10 0 -18 -4 -18 -10 0 -5 9 -10 19 -10 20 0 35 25 26 41
-4 5 1 6 9 3 20 -8 20 3 0 23 -11 11 -28 14 -65 11 -44 -5 -49 -3 -50 16 -2
41 3 71 15 78 8 6 7 8 -3 8 -10 0 -12 22 -7 112 3 62 8 206 11 321 l6 208 -37
-3 c-36 -3 -62 -28 -29 -28 12 0 15 -5 9 -22 -4 -13 -12 -26 -18 -30 -8 -5 -8
-10 1 -19 8 -8 8 -21 -2 -50 -9 -25 -15 -86 -15 -167 -1 -70 -4 -156 -7 -192
-9 -108 -9 -274 0 -287 6 -8 6 -13 -1 -13 -11 0 -14 -31 -13 -162 1 -45 -3
-78 -9 -78 -6 0 -10 -7 -10 -15 0 -8 5 -15 10 -15 15 0 12 -51 -4 -82 -8 -16
-11 -28 -5 -28 5 0 7 -16 4 -35 -3 -23 0 -35 8 -35 7 0 6 -4 -3 -10 -8 -5 -10
-10 -4 -10 16 0 0 -69 -18 -82 -10 -7 -8 -8 5 -4 14 5 16 1 11 -22 -4 -15 -9
-31 -13 -37 -3 -5 -6 -44 -6 -85 0 -55 -3 -74 -13 -73 -6 2 -12 -6 -12 -17 0
-11 -5 -20 -12 -20 -6 0 -4 -6 7 -13 18 -14 13 -43 -6 -32 -13 8 -11 -2 4 -25
9 -16 9 -22 0 -28 -8 -5 -11 -28 -10 -64 2 -31 -1 -54 -5 -52 -4 3 -8 -6 -8
-20 0 -14 5 -26 10 -26 6 0 10 -4 10 -10 0 -5 -7 -10 -15 -10 -14 0 -14 -3 0
-30 12 -24 13 -35 4 -52 -9 -18 -9 -20 4 -15 9 3 18 -1 21 -10 9 -23 -1 -28
-19 -9 -9 9 -21 16 -26 16 -15 0 -10 -18 9 -30 12 -8 13 -13 5 -16 -7 -3 -13
-10 -13 -15 0 -6 5 -7 10 -4 5 3 10 -3 10 -15 0 -11 7 -23 15 -26 25 -10 17
-21 -12 -17 l-28 4 24 -20 23 -21 -30 0 c-22 0 -32 -6 -37 -20 -7 -23 2 -60
16 -60 5 0 9 -6 9 -14 0 -8 6 -17 13 -19 9 -4 9 -6 0 -6 -7 -1 -13 -7 -13 -15
0 -8 -8 -17 -17 -21 -17 -6 -17 -8 2 -21 19 -15 19 -16 2 -28 -14 -11 -15 -15
-4 -19 8 -3 16 -16 19 -29 5 -24 -8 -42 -46 -66 -19 -12 -18 -13 11 -8 25 4
33 2 33 -9 0 -8 -4 -15 -10 -15 -5 0 -10 -4 -10 -10 0 -5 9 -10 20 -10 30 0
24 -19 -7 -26 -44 -9 -50 -12 -25 -13 14 -1 22 -6 19 -13 -2 -7 -13 -12 -24
-11 -16 2 -19 -3 -16 -20 3 -17 0 -23 -16 -24 -14 -1 -21 4 -21 15 0 10 -9 23
-19 29 -13 8 -21 29 -26 62 -4 28 -12 51 -18 51 -7 0 -13 20 -14 49 -1 27 -6
58 -11 68 -6 11 -7 25 -1 35 7 13 5 15 -10 11 -17 -4 -19 -1 -11 31 8 36 -1
53 -21 41 -7 -5 -8 5 -3 32 5 21 8 48 7 61 0 12 4 22 11 22 6 0 2 8 -9 16
l-20 15 20 16 c12 10 14 14 4 10 -12 -4 -15 3 -16 30 -1 20 -7 39 -15 44 -10
7 -8 9 6 9 19 0 18 1 -2 23 -24 25 -28 37 -12 37 6 0 10 -7 10 -15 0 -8 5 -15
10 -15 15 0 12 17 -6 45 -10 15 -14 37 -12 56 3 21 0 33 -12 39 -9 5 -22 27
-29 49 -6 23 -15 41 -20 41 -4 0 -14 18 -21 39 -7 22 -19 42 -26 45 -8 3 -14
12 -14 21 0 9 -10 35 -22 58 -12 23 -22 45 -23 49 0 4 -10 18 -23 30 -13 13
-45 57 -72 98 -59 91 -102 140 -123 140 -9 0 -19 5 -22 10 -3 6 0 10 7 10 11
0 10 2 0 9 -13 8 -52 106 -97 246 -25 81 -57 146 -92 193 -16 22 -23 41 -19
55 4 16 -5 30 -34 57 -39 36 -50 63 -30 75 6 3 10 10 10 14 0 13 -37 20 -48 9
-10 -10 -52 40 -52 61 0 6 -5 11 -11 11 -6 0 -8 7 -5 16 3 8 2 13 -3 10 -10
-7 -43 28 -35 37 4 4 -5 11 -19 16 -17 7 -25 16 -21 24 5 14 -9 22 -93 58 -17
7 -30 16 -27 20 6 10 -33 22 -47 14 -5 -4 -19 1 -31 12 -22 20 -27 21 -138 28
-41 2 -103 10 -136 16 -34 6 -76 12 -93 13 -17 1 -41 12 -54 24 -25 24 -83 30
-90 10 -3 -9 -13 -7 -34 9 -23 16 -33 19 -42 10 -8 -8 -11 -5 -11 11 0 15 5
22 14 20 8 -2 15 0 16 4 1 4 5 21 10 38 5 16 5 30 1 30 -5 0 -11 18 -15 40
l-6 40 -96 0 c-94 0 -95 0 -88 -22 4 -13 7 -31 6 -40 0 -12 4 -15 16 -11 15 6
15 5 3 -10 -7 -9 -18 -14 -23 -11 -6 4 -8 -2 -3 -15 4 -13 2 -21 -5 -21 -6 0
-8 -5 -4 -11 5 -8 10 -6 16 5 5 9 17 16 26 16 15 -1 15 -2 -2 -15 -15 -12 -22
-33 -25 -89 -1 -6 -7 -1 -15 10 -14 19 -15 19 -22 0 -5 -12 -3 -21 4 -24 7 -2
12 -10 12 -17 0 -17 -70 -85 -87 -85 -17 0 -63 -48 -60 -62 1 -6 -12 -21 -30
-32 -33 -21 -45 -43 -19 -33 10 4 13 1 9 -9 -3 -9 -13 -14 -24 -11 -11 3 -17
1 -13 -4 3 -5 0 -9 -7 -9 -6 0 -22 -11 -34 -24 -13 -14 -25 -22 -28 -20 -8 8
-47 -34 -47 -50 0 -7 -9 -25 -20 -39 -11 -14 -20 -28 -20 -32 0 -4 -16 -41
-36 -83 -38 -79 -41 -90 -54 -162 -13 -76 -52 -170 -70 -170 -4 0 -10 -9 -13
-20 -4 -14 -12 -19 -35 -17 -27 2 -29 4 -19 22 10 19 10 19 17 0 8 -24 18 -9
18 28 0 21 -4 26 -17 22 -14 -4 -16 4 -15 55 1 53 -6 74 -19 53 -2 -5 -2 -3
-1 4 2 7 -1 15 -6 18 -5 3 -7 12 -3 20 3 8 0 15 -6 15 -6 0 -11 -4 -11 -10 0
-5 -5 -10 -11 -10 -6 0 -8 9 -3 22 11 35 7 81 -9 93 -15 11 -11 95 5 95 5 0 8
8 6 18 -1 9 1 22 5 29 4 6 3 14 -3 18 -5 3 -10 3 -10 -2 0 -4 -5 -1 -11 7 -9
12 -10 11 -6 -7 6 -29 -4 -29 -29 -2 -12 14 -15 23 -8 26 13 4 7 43 -7 43 -5
0 -9 9 -9 20 0 11 -5 20 -11 20 -6 0 -9 9 -6 20 3 12 -1 24 -11 31 -12 7 -14
12 -4 15 6 3 12 10 12 15 0 6 -4 7 -10 4 -5 -3 -10 1 -10 9 0 10 6 13 15 10 8
-4 15 -2 16 2 0 5 2 18 4 29 2 10 -1 26 -8 33 -6 8 -10 29 -8 48 2 26 -1 34
-13 34 -9 0 -16 4 -16 10 0 5 4 9 9 7 5 -1 8 1 8 4 -1 4 7 17 18 29 l19 21
-25 -4 c-22 -4 -25 -2 -23 24 1 16 -2 44 -6 63 -4 19 -3 39 2 44 5 5 5 19 -1
34 -5 14 -7 29 -4 32 4 3 -8 6 -26 6 l-33 0 6 -232 c3 -128 8 -345 11 -483 4
-137 8 -288 10 -335 11 -237 17 -584 9 -577 -4 4 -7 50 -6 102 1 68 -2 95 -11
95 -8 0 -8 3 2 9 9 6 11 16 5 32 -4 13 -6 40 -5 60 2 39 -14 55 -40 38 -8 -5
-18 -9 -24 -8 -5 0 1 6 14 13 14 8 31 12 38 9 7 -3 13 2 13 11 0 9 -7 16 -16
16 -14 0 -14 3 -4 15 11 13 10 18 -6 30 -14 11 -15 14 -3 9 9 -3 19 1 22 9 7
17 -6 83 -16 80 -19 -7 -37 -2 -37 11 0 9 -8 12 -25 8 -28 -5 -34 -22 -7 -22
9 0 24 -5 32 -10 12 -8 10 -10 -10 -8 -23 3 -25 -1 -25 -34 0 -21 3 -38 7 -38
5 0 8 -5 8 -11 0 -5 -4 -7 -10 -4 -5 3 -10 1 -10 -4 0 -6 -8 -11 -17 -11 -17
-1 -17 -1 0 -14 25 -19 21 -23 -15 -18 -32 4 -32 3 -13 -12 11 -8 28 -16 38
-16 9 0 17 -5 17 -11 0 -5 -4 -7 -10 -4 -5 3 -10 2 -10 -4 0 -5 5 -11 11 -13
6 -2 13 -26 15 -52 4 -42 3 -47 -10 -37 -7 6 -12 22 -10 34 4 20 4 21 -4 2 -5
-11 -7 -25 -5 -32 2 -6 -5 -14 -16 -18 -12 -4 -18 -12 -14 -21 3 -7 1 -14 -5
-14 -17 0 -1 -39 21 -55 l21 -15 -22 0 c-12 0 -22 -4 -22 -8 0 -5 -9 -13 -21
-18 -17 -8 -13 -9 20 -10 32 -1 38 2 34 15 -5 12 -3 13 7 5 7 -7 9 -21 5 -34
-5 -16 -10 -19 -18 -11 -6 6 -20 11 -31 10 -12 0 -16 -3 -10 -5 7 -3 10 -13 7
-23 -6 -23 15 -38 23 -17 9 23 21 20 28 -6 4 -16 0 -28 -14 -40 -12 -10 -16
-19 -10 -23 5 -3 10 -1 10 6 0 7 3 9 7 6 3 -4 -1 -15 -11 -25 -10 -12 -14 -26
-10 -37 6 -15 4 -17 -11 -11 -11 4 -16 4 -13 1 4 -4 2 -18 -3 -32 -5 -14 -6
-31 -2 -37 10 -13 9 -34 -1 -58 -4 -9 -5 -22 -1 -27 4 -7 -1 -9 -12 -5 -11 3
-9 0 5 -9 21 -12 22 -15 8 -26 -18 -15 -13 -29 18 -41 17 -7 17 -9 4 -9 -10
-1 -18 -8 -18 -17 0 -10 -6 -14 -15 -10 -8 3 -15 1 -15 -4 0 -5 -6 -7 -14 -4
-11 4 -13 0 -9 -15 4 -17 1 -21 -18 -22 -17 -1 -19 -3 -6 -6 9 -2 17 -9 17
-14 0 -5 7 -9 15 -9 8 0 15 -7 15 -15 0 -8 -7 -15 -15 -15 -8 0 -14 -6 -13
-12 2 -7 -7 -14 -18 -16 -16 -2 -20 -8 -17 -22 3 -11 10 -17 15 -14 6 4 5 -2
-1 -14 -6 -11 -16 -23 -23 -25 -9 -4 -8 -6 3 -6 19 -1 19 -39 -1 -51 -12 -7
-11 -11 1 -26 9 -11 9 -15 2 -10 -7 4 -13 2 -13 -3 0 -10 14 -13 36 -10 10 1
24 -24 24 -44 0 -11 -5 -17 -12 -14 -7 2 -12 11 -10 21 2 10 -4 16 -18 16 -11
0 -20 -4 -20 -10 0 -5 5 -10 10 -10 14 0 12 -28 -2 -33 -7 -2 -10 -8 -5 -12 4
-5 12 -4 18 2 12 12 59 -3 59 -19 0 -12 -14 -10 -27 3 -7 7 -19 8 -30 4 -10
-5 -23 -7 -30 -6 -6 1 -14 -3 -18 -9 -3 -6 0 -7 9 -4 14 5 18 -1 15 -22 0 -4
5 -11 13 -15 10 -6 8 -9 -7 -9 -16 0 -17 -2 -6 -9 17 -11 23 -39 10 -47 -5 -3
-9 0 -9 5 0 6 -7 11 -16 11 -11 0 -14 -6 -9 -21 5 -16 1 -22 -24 -32 -37 -14
-41 -28 -7 -21 17 3 28 -2 35 -13 9 -16 10 -14 11 8 0 27 24 46 35 29 9 -14
-4 -32 -17 -24 -7 5 -9 -6 -5 -32 3 -21 3 -32 1 -23 -5 15 -52 44 -60 36 -2
-2 -6 -19 -8 -38 -3 -19 -5 -36 -6 -39 -2 -9 -29 45 -30 58 0 8 5 10 12 6 8
-5 9 -2 5 10 -4 10 -7 24 -7 32 0 8 -5 14 -10 14 -6 0 -8 -11 -4 -25 4 -16 2
-25 -5 -25 -14 0 -3 -52 12 -62 16 -10 -8 -35 -39 -41 -33 -6 -38 5 -14 31 24
25 26 36 5 28 -8 -3 -15 0 -15 5 0 7 -9 9 -21 6 -14 -4 -22 0 -28 15 -6 18 -8
18 -20 4 -12 -14 -16 -14 -42 5 -21 15 -28 26 -24 40 5 14 2 19 -11 19 -16 0
-16 1 2 15 10 8 15 15 9 15 -5 0 -4 4 4 9 12 8 12 12 2 25 -11 13 -10 17 4 22
15 6 15 9 -6 21 -24 14 -24 14 -2 10 27 -6 39 8 23 28 -8 9 -8 15 0 20 6 3 8
11 5 16 -4 5 -1 9 5 9 6 0 8 5 4 12 -5 8 -11 6 -19 -5 -11 -16 -13 -15 -29 1
-9 10 -16 27 -16 38 1 18 1 18 11 2 14 -25 26 -22 31 7 3 14 1 25 -4 25 -5 0
-6 5 -3 10 4 6 11 8 16 5 5 -4 9 -2 9 3 0 5 -9 12 -21 15 -16 4 -23 0 -27 -16
-5 -19 -7 -18 -13 10 -7 37 -1 85 11 78 5 -3 11 -1 15 5 3 6 -1 13 -9 16 -21
8 -21 44 0 44 8 0 12 5 9 11 -4 6 -13 8 -21 5 -10 -4 -14 3 -15 22 -4 89 -3
87 -28 87 -27 0 -54 34 -33 42 18 7 15 21 -6 27 -11 4 -18 15 -17 26 2 25 15
39 15 17 0 -9 5 -17 10 -17 6 0 10 10 10 23 0 12 3 31 6 43 3 12 -1 27 -10 37
-9 8 -16 24 -16 35 0 11 -7 22 -15 26 -8 3 -12 12 -9 21 5 11 0 15 -17 15 -22
1 -22 2 -6 11 14 8 16 14 6 25 -9 11 -8 14 4 14 23 0 32 38 14 58 -20 23 -27
52 -30 145 -3 71 -2 77 10 55 l14 -23 -8 25 c-4 14 -8 42 -7 63 0 36 -18 52
-29 24 -5 -14 -41 -16 -53 -4 -4 3 -3 18 0 32 6 23 8 24 22 10 20 -19 27 -19
47 3 22 24 21 31 -5 42 -19 7 -19 9 -5 9 25 1 11 21 -14 21 -16 0 -19 -5 -14
-20 6 -17 2 -20 -29 -20 -24 0 -36 5 -36 14 0 9 7 12 20 9 11 -3 20 0 20 6 0
6 -9 11 -20 11 -18 0 -19 3 -9 22 8 14 14 18 17 10 2 -6 10 -12 18 -12 12 0
12 4 2 19 -7 11 -17 17 -23 13 -5 -3 -4 2 3 11 17 21 8 37 -18 30 -16 -4 -19
-2 -14 11 5 12 10 13 26 5 24 -13 41 5 33 32 -3 9 1 22 10 29 17 14 20 50 4
50 -6 0 -8 -9 -4 -20 5 -14 2 -20 -9 -20 -9 0 -16 -9 -16 -20 0 -11 -7 -23
-15 -27 -22 -8 -33 6 -15 18 13 8 13 10 0 19 -8 5 -29 10 -47 10 -38 0 -63 9
-63 21 0 6 8 5 19 -1 34 -18 61 -12 72 16 5 15 7 29 4 32 -2 3 1 12 8 20 7 10
8 13 1 9 -15 -9 -26 33 -13 49 7 8 6 14 -3 17 -10 4 -10 6 0 6 21 2 13 19 -10
24 l-23 4 23 8 c28 9 24 28 -9 35 -13 3 -24 11 -24 18 0 17 -25 31 -42 25 -16
-6 -18 23 -1 33 6 4 14 2 16 -4 2 -7 11 -12 20 -12 12 0 10 5 -8 23 -14 12
-28 21 -32 19 -5 -1 -8 13 -7 30 0 18 3 28 5 21 3 -7 12 -9 20 -6 10 4 11 9 5
17 -8 9 0 12 31 9 23 -2 38 0 34 4 -4 5 -13 8 -19 8 -7 0 -13 10 -15 23 -2 12
2 22 8 22 6 0 2 9 -8 20 -11 12 -18 32 -16 45 1 14 -1 25 -6 25 -4 0 -10 9
-13 20 -3 11 -1 20 4 20 5 0 9 6 9 14 0 15 -16 16 -37 3 -14 -9 -17 21 -7 61
9 31 21 27 19 -6 -1 -19 3 -29 12 -29 8 0 13 9 11 21 -1 12 1 27 5 34 6 8 2
12 -10 13 -10 0 -13 3 -6 5 7 3 9 12 6 20 -4 11 -8 12 -19 3 -8 -7 -16 -10
-18 -8 -2 2 -7 47 -10 99 -3 52 -3 89 0 83 8 -19 34 -16 34 4 0 9 -3 14 -6 10
-13 -12 -32 21 -39 66 l-7 47 -82 0 c-44 0 -89 -5 -99 -11z m-40 -635 c-3 -3
-12 -4 -19 -1 -8 3 -5 6 6 6 11 1 17 -2 13 -5z m1296 -19 c-3 -9 -8 -14 -10
-11 -3 3 -2 9 2 15 9 16 15 13 8 -4z m-996 -141 c-3 -3 -12 -4 -19 -1 -8 3 -5
6 6 6 11 1 17 -2 13 -5z m-310 -30 c-3 -3 -12 -4 -19 -1 -8 3 -5 6 6 6 11 1
17 -2 13 -5z m288 -83 c3 -5 1 -12 -5 -16 -5 -3 -10 1 -10 9 0 18 6 21 15 7z
m60 -21 c-3 -5 -10 -10 -16 -10 -5 0 -9 5 -9 10 0 6 7 10 16 10 8 0 12 -4 9
-10z m-5 -45 c0 -8 -4 -15 -10 -15 -5 0 -10 7 -10 15 0 8 5 15 10 15 6 0 10
-7 10 -15z m1594 -75 c-10 -16 -20 -27 -22 -25 -5 5 26 55 34 55 3 0 -3 -13
-12 -30z m-1974 -34 c0 -3 -4 -8 -10 -11 -5 -3 -10 -1 -10 4 0 6 5 11 10 11 6
0 10 -2 10 -4z m1218 -64 c2 -7 -2 -10 -12 -6 -9 3 -16 11 -16 16 0 13 23 5
28 -10z m-808 -3 c0 -5 -4 -7 -10 -4 -5 3 -10 -2 -10 -12 0 -15 -2 -16 -10 -3
-9 13 -11 13 -20 0 -11 -17 -13 -10 -4 14 7 18 54 22 54 5z m777 -61 c-3 -8
-6 -5 -6 6 -1 11 2 17 5 13 3 -3 4 -12 1 -19z m-30 -50 c-3 -8 -6 -5 -6 6 -1
11 2 17 5 13 3 -3 4 -12 1 -19z m-1144 -33 c-3 -9 -8 -14 -10 -11 -3 3 -2 9 2
15 9 16 15 13 8 -4z m1745 -70 c8 -8 -16 -55 -28 -55 -5 0 -10 6 -10 14 0 7
-7 19 -15 26 -25 21 -17 33 17 26 17 -3 34 -8 36 -11z m-1277 -14 c-7 -5 -10
-14 -7 -20 5 -7 -4 -11 -26 -10 -30 0 -31 1 -10 9 27 11 30 24 3 15 -11 -3
-22 -1 -26 5 -4 6 10 10 37 10 28 0 38 -3 29 -9z m6 -47 c-3 -3 -12 -4 -19 -1
-8 3 -5 6 6 6 11 1 17 -2 13 -5z m662 -46 c-1 -24 -3 -35 -6 -25 -2 9 -8 15
-13 12 -4 -3 -14 3 -21 12 -12 15 -11 16 9 11 17 -5 22 -2 22 13 0 10 2 19 5
19 3 0 4 -19 4 -42z m-659 12 c0 -11 -7 -23 -15 -27 -25 -9 -28 3 -8 25 23 26
23 26 23 2z m2196 -35 c-26 -19 -42 -19 -26 0 7 8 20 15 29 15 13 -1 13 -3 -3
-15z m164 -9 c0 -3 -4 -8 -10 -11 -5 -3 -10 -1 -10 4 0 6 5 11 10 11 6 0 10
-2 10 -4z m-1617 -21 c-3 -9 -8 -14 -10 -11 -3 3 -2 9 2 15 9 16 15 13 8 -4z
m1695 7 c7 -5 14 -22 15 -38 2 -26 -1 -29 -31 -32 l-33 -3 16 25 c10 14 15 33
11 41 -6 17 2 19 22 7z m1422 -12 c0 -5 -4 -10 -10 -10 -5 0 -10 5 -10 10 0 6
5 10 10 10 6 0 10 -4 10 -10z m15 -30 c3 -5 -1 -10 -9 -10 -10 0 -13 -6 -10
-15 4 -8 1 -15 -5 -15 -12 0 -14 11 -5 34 7 18 20 21 29 6z m-4375 -60 c0 -5
-4 -10 -10 -10 -5 0 -10 5 -10 10 0 6 5 10 10 10 6 0 10 -4 10 -10z m540 -28
c0 -7 -4 -10 -10 -7 -5 3 -10 16 -10 28 0 18 2 19 10 7 5 -8 10 -21 10 -28z
m2697 22 c3 -9 0 -20 -8 -25 -25 -16 -36 -10 -31 16 5 28 29 34 39 9z m1153
-4 c13 -9 13 -11 0 -20 -8 -5 -22 -9 -30 -9 -11 1 -10 3 3 6 9 2 17 9 17 15 0
6 -9 8 -20 5 -11 -3 -20 -1 -20 4 0 12 31 11 50 -1z m-4053 -42 c-3 -7 -5 -2
-5 12 0 14 2 19 5 13 2 -7 2 -19 0 -25z m4023 -3 c0 -2 -7 -5 -15 -9 -9 -3
-15 0 -15 9 0 9 6 12 15 9 8 -4 15 -7 15 -9z m-4023 -47 c-3 -7 -5 -2 -5 12 0
14 2 19 5 13 2 -7 2 -19 0 -25z m800 -10 c-3 -8 -6 -5 -6 6 -1 11 2 17 5 13 3
-3 4 -12 1 -19z m3308 -27 c-6 -5 -25 10 -25 20 0 5 6 4 14 -3 8 -7 12 -15 11
-17z m-4435 5 c0 -3 -4 -8 -10 -11 -5 -3 -10 -1 -10 4 0 6 5 11 10 11 6 0 10
-2 10 -4z m327 -63 c-2 -16 -4 -5 -4 22 0 28 2 40 4 28 2 -13 2 -35 0 -50z
m-390 -5 c-3 -8 -6 -5 -6 6 -1 11 2 17 5 13 3 -3 4 -12 1 -19z m4399 -3 c-3
-10 1 -15 12 -16 16 -1 16 -2 0 -6 -10 -2 -18 -11 -18 -18 0 -9 6 -12 15 -9 8
4 15 1 15 -6 0 -21 -35 -5 -38 18 -4 25 3 52 14 52 3 0 4 -7 0 -15z m144 -19
c0 -11 -19 -15 -25 -6 -3 5 1 10 9 10 9 0 16 -2 16 -4z m-4593 -38 c-3 -7 -5
-2 -5 12 0 14 2 19 5 13 2 -7 2 -19 0 -25z m4590 -48 c2 -21 -7 -24 -44 -14
-27 7 -30 21 -5 27 36 10 48 7 49 -13z m-105 -12 c-6 -24 -29 -23 -42 2 -9 17
-7 19 18 17 22 -1 28 -6 24 -19z m-3262 -12 c0 -11 -19 -15 -25 -6 -3 5 1 10
9 10 9 0 16 -2 16 -4z m3236 -66 c16 -14 19 -30 5 -30 -5 0 -12 8 -14 18 -3 9
-5 -7 -6 -35 l-1 -53 43 0 c28 -1 37 -3 27 -9 -17 -10 -50 -9 -68 3 -8 5 -12
34 -11 89 1 45 4 70 6 55 2 -14 11 -32 19 -38z m63 46 c7 -8 8 -16 4 -19 -15
-8 -73 -6 -73 4 0 5 9 9 20 9 11 0 20 5 20 10 0 14 16 12 29 -4z m-4499 -28
c0 -5 -5 -8 -11 -8 -5 0 -7 5 -4 10 3 6 1 10 -5 10 -6 0 -8 5 -4 11 6 11 23
-6 24 -23z m417 -40 c-2 -13 -4 -5 -4 17 -1 22 1 32 4 23 2 -10 2 -28 0 -40z
m783 22 c0 -5 -5 -10 -11 -10 -5 0 -7 5 -4 10 3 6 8 10 11 10 2 0 4 -4 4 -10z
m3350 -16 c0 -17 -22 -14 -28 4 -2 7 3 12 12 12 9 0 16 -7 16 -16z m-3865 -34
c-3 -6 1 -7 9 -4 10 4 16 1 16 -9 0 -25 -35 -14 -41 13 -7 32 1 48 13 26 5 -9
6 -21 3 -26z m479 4 c4 -10 1 -14 -6 -12 -15 5 -23 28 -10 28 5 0 13 -7 16
-16z m-747 -66 c-2 -13 -4 -3 -4 22 0 25 2 35 4 23 2 -13 2 -33 0 -45z m4061
55 c-10 -2 -26 -2 -35 0 -10 3 -2 5 17 5 19 0 27 -2 18 -5z m-3768 -53 c0 -14
-6 -20 -22 -19 -17 1 -19 2 -5 6 9 2 17 11 17 19 0 8 2 14 5 14 3 0 5 -9 5
-20z m-53 -12 c-3 -8 -6 -5 -6 6 -1 11 2 17 5 13 3 -3 4 -12 1 -19z m500 -14
c-3 -3 -12 -4 -19 -1 -8 3 -5 6 6 6 11 1 17 -2 13 -5z m-740 -56 c-3 -7 -5 -2
-5 12 0 14 2 19 5 13 2 -7 2 -19 0 -25z m730 -24 c3 -18 2 -18 -6 1 -8 17 -10
18 -10 3 -1 -22 -17 -24 -24 -4 -6 15 9 26 28 22 6 -2 11 -11 12 -22z m-480
-36 c-3 -8 -6 -5 -6 6 -1 11 2 17 5 13 3 -3 4 -12 1 -19z m3873 -48 c-20 -13
-33 -13 -25 0 3 6 14 10 23 10 15 0 15 -2 2 -10z m-4123 -62 c-2 -13 -4 -3 -4
22 0 25 2 35 4 23 2 -13 2 -33 0 -45z m0 -70 c-3 -8 -6 -5 -6 6 -1 11 2 17 5
13 3 -3 4 -12 1 -19z m320 -50 c-3 -8 -6 -5 -6 6 -1 11 2 17 5 13 3 -3 4 -12
1 -19z m3393 -108 c0 -5 -5 -10 -11 -10 -5 0 -7 5 -4 10 3 6 8 10 11 10 2 0 4
-4 4 -10z m94 -25 c-7 -16 -24 -21 -24 -6 0 8 7 13 27 20 1 1 0 -6 -3 -14z
m-1604 -19 c0 -3 -4 -8 -10 -11 -5 -3 -10 -1 -10 4 0 6 5 11 10 11 6 0 10 -2
10 -4z m1557 -43 c-3 -10 -5 -4 -5 12 0 17 2 24 5 18 2 -7 2 -21 0 -30z
m-3307 9 c35 -5 37 -10 9 -30 -28 -20 -45 -22 -41 -4 1 6 -4 12 -12 12 -9 0
-12 7 -9 20 3 12 10 17 17 13 6 -4 22 -9 36 -11z m3255 8 c3 -5 -1 -10 -9 -10
-9 0 -16 5 -16 10 0 6 4 10 9 10 6 0 13 -4 16 -10z m-1510 -20 c3 -5 -1 -10
-10 -10 -9 0 -13 5 -10 10 3 6 8 10 10 10 2 0 7 -4 10 -10z m1565 -39 c0 -5
-7 -12 -16 -15 -14 -5 -15 -4 -4 9 14 17 20 19 20 6z m-3337 -17 c28 -10 19
-24 -15 -24 -25 0 -29 3 -18 10 13 9 13 11 0 21 -13 9 -13 10 0 5 8 -3 23 -9
33 -12z m67 -44 c0 -5 -8 -10 -17 -10 -15 0 -16 2 -3 10 19 12 20 12 20 0z
m-89 -57 c-9 -15 -10 -13 -11 13 0 17 3 34 8 38 11 12 14 -32 3 -51z m129 43
c0 -3 -4 -8 -10 -11 -5 -3 -10 -1 -10 4 0 6 5 11 10 11 6 0 10 -2 10 -4z m-50
-56 c0 -5 -2 -10 -4 -10 -3 0 -8 5 -11 10 -3 6 -1 10 4 10 6 0 11 -4 11 -10z
m2098 -72 c24 -50 28 -134 6 -142 -9 -3 -22 14 -41 54 -14 32 -30 57 -35 54
-4 -3 -8 -3 -8 0 0 10 42 76 49 76 4 0 17 -19 29 -42z m16 26 c3 -8 2 -12 -4
-9 -6 3 -10 10 -10 16 0 14 7 11 14 -7z m1616 -32 c0 -5 -7 -9 -15 -9 -8 0
-12 4 -9 9 3 4 9 8 15 8 5 0 9 -4 9 -8z m0 -82 c0 -5 -7 -7 -15 -4 -8 4 -15 8
-15 10 0 2 7 4 15 4 8 0 15 -4 15 -10z m-3819 -153 c-10 -9 -11 -8 -5 6 3 10
9 15 12 12 3 -3 0 -11 -7 -18z m2215 7 c-3 -8 -2 -13 3 -10 5 3 12 -1 15 -10
9 -23 7 -34 -4 -34 -5 0 -10 7 -10 15 0 8 -4 15 -10 15 -5 0 -10 9 -10 20 0
11 5 20 11 20 6 0 8 -7 5 -16z m766 -146 c-7 -7 -12 -8 -12 -2 0 14 12 26 19
19 2 -3 -1 -11 -7 -17z m615 -80 c-3 -8 -6 -5 -6 6 -1 11 2 17 5 13 3 -3 4
-12 1 -19z m-1309 -251 c2 -9 -2 -17 -8 -17 -6 0 -8 5 -5 10 3 6 1 10 -4 10
-14 0 -14 -17 0 -26 13 -7 5 -60 -12 -80 -8 -10 -15 -11 -30 -1 -27 17 -28
100 -1 90 9 -3 14 -3 10 2 -9 9 22 36 37 31 6 -1 11 -10 13 -19z m-58 -117 c0
-5 -2 -10 -4 -10 -3 0 -8 5 -11 10 -3 6 -1 10 4 10 6 0 11 -4 11 -10z m-3
-187 c-3 -10 -5 -4 -5 12 0 17 2 24 5 18 2 -7 2 -21 0 -30z m1723 -1055 c0 -7
-5 -20 -10 -28 -8 -12 -10 -9 -10 13 0 15 5 27 10 27 6 0 10 -6 10 -12z"/>
<path d="M3369 5515 c-6 -40 -4 -53 7 -43 3 3 4 23 2 44 l-3 39 -6 -40z"/>
<path d="M3360 5399 c0 -18 3 -29 7 -25 11 11 13 45 3 51 -6 4 -10 -7 -10 -26z"/>
<path d="M450 5361 c0 -5 6 -12 13 -15 10 -5 10 -7 0 -12 -15 -7 -18 -34 -4
-34 5 0 12 6 14 13 4 8 6 9 6 0 1 -6 -6 -18 -14 -27 -19 -18 -20 -33 -2 -17 8
6 17 8 20 5 3 -4 4 7 3 22 -2 16 -4 39 -5 52 -1 21 -31 33 -31 13z"/>
<path d="M2595 5350 c11 -5 31 -9 45 -9 20 -1 22 1 10 9 -8 5 -28 9 -45 9 -26
0 -27 -2 -10 -9z"/>
<path d="M205 5330 c-3 -5 1 -10 9 -10 9 0 16 5 16 10 0 6 -4 10 -9 10 -6 0
-13 -4 -16 -10z"/>
<path d="M2940 5310 c-13 -8 -12 -10 3 -10 9 0 17 5 17 10 0 12 -1 12 -20 0z"/>
<path d="M3356 5274 c-9 -70 -7 -204 3 -204 5 0 10 17 10 38 0 20 2 76 4 125
3 93 -6 117 -17 41z"/>
<path d="M505 5285 c0 -14 3 -25 6 -25 10 0 20 31 13 41 -10 17 -19 9 -19 -16z"/>
<path d="M1524 5145 c-10 -26 1 -35 13 -10 6 14 7 25 2 25 -5 0 -12 -7 -15
-15z"/>
<path d="M3352 5028 c2 -18 8 -33 13 -33 6 0 11 15 13 33 3 24 -1 32 -13 32
-12 0 -16 -8 -13 -32z"/>
<path d="M1515 5020 c-3 -5 -1 -10 4 -10 6 0 11 5 11 10 0 6 -2 10 -4 10 -3 0
-8 -4 -11 -10z"/>
<path d="M4560 4969 c0 -5 5 -7 10 -4 6 3 10 8 10 11 0 2 -4 4 -10 4 -5 0 -10
-5 -10 -11z"/>
<path d="M161 4854 c0 -11 3 -14 6 -6 3 7 2 16 -1 19 -3 4 -6 -2 -5 -13z"/>
<path d="M173 4833 c-17 -6 -16 -20 1 -26 8 -3 16 2 19 14 5 19 2 21 -20 12z"/>
<path d="M1313 4762 c4 -19 2 -22 -14 -17 -11 4 -19 2 -19 -4 0 -6 7 -11 16
-11 23 0 67 -37 54 -45 -6 -3 -8 -11 -5 -16 4 -5 0 -9 -8 -9 -12 0 -13 -4 -4
-23 11 -25 39 -34 30 -10 -3 7 -10 13 -15 13 -6 0 -5 7 2 15 7 9 14 36 15 60
1 35 -2 45 -15 45 -9 0 -22 6 -29 13 -11 10 -13 8 -8 -11z"/>
<path d="M1580 4752 c0 -5 7 -9 15 -9 8 0 12 4 9 9 -3 4 -9 8 -15 8 -5 0 -9
-4 -9 -8z"/>
<path d="M1288 4703 c7 -3 16 -2 19 1 4 3 -2 6 -13 5 -11 0 -14 -3 -6 -6z"/>
<path d="M1294 4662 c-14 -9 -13 -64 1 -69 6 -1 11 15 11 37 1 22 1 40 0 40 0
0 -6 -4 -12 -8z"/>
<path d="M616 4604 c-11 -8 -16 -14 -10 -14 13 0 39 18 34 24 -3 2 -14 -2 -24
-10z"/>
<path d="M1337 4591 c-17 -6 -17 -8 2 -25 21 -19 21 -19 19 7 -1 15 -3 27 -3
26 0 0 -8 -4 -18 -8z"/>
<path d="M120 4528 c0 -19 2 -20 10 -8 13 19 13 30 0 30 -5 0 -10 -10 -10 -22z"/>
<path d="M1318 4528 c-17 -17 -17 -18 12 -18 31 0 39 11 18 27 -9 7 -19 4 -30
-9z"/>
<path d="M1640 4529 c0 -5 5 -7 10 -4 6 3 10 8 10 11 0 2 -4 4 -10 4 -5 0 -10
-5 -10 -11z"/>
<path d="M1352 4475 c0 -16 2 -22 5 -12 2 9 2 23 0 30 -3 6 -5 -1 -5 -18z"/>
<path d="M1250 4470 c0 -5 5 -10 11 -10 5 0 7 5 4 10 -3 6 -8 10 -11 10 -2 0
-4 -4 -4 -10z"/>
<path d="M4533 4425 c-3 -9 -3 -18 -1 -21 3 -3 8 4 11 16 6 23 -1 27 -10 5z"/>
<path d="M1250 4410 c0 -5 5 -10 10 -10 6 0 10 5 10 10 0 6 -4 10 -10 10 -5 0
-10 -4 -10 -10z"/>
<path d="M2245 4388 c-32 -11 -65 -36 -65 -49 0 -4 23 4 50 18 28 14 50 30 50
34 0 5 -1 9 -2 8 -2 0 -16 -5 -33 -11z"/>
<path d="M2330 4391 c0 -7 70 -41 120 -58 13 -4 13 -4 0 6 -13 9 -13 11 3 11
10 0 17 -8 17 -20 0 -11 7 -20 15 -20 8 0 15 4 15 9 0 20 -33 41 -72 47 -22 4
-42 13 -45 20 -6 15 -53 20 -53 5z"/>
<path d="M632 4368 c2 -12 10 -23 18 -25 12 -4 12 -3 1 5 -11 8 -11 10 0 14 7
2 9 10 5 16 -12 20 -28 14 -24 -10z"/>
<path d="M4560 4350 c0 -5 7 -10 15 -10 8 0 15 5 15 10 0 6 -7 10 -15 10 -8 0
-15 -4 -15 -10z"/>
<path d="M4547 4241 c-2 -11 0 -24 6 -30 16 -16 26 -13 22 7 -2 9 -4 23 -4 30
-1 19 -18 14 -24 -7z"/>
<path d="M2333 4233 c9 -2 23 -2 30 0 6 3 -1 5 -18 5 -16 0 -22 -2 -12 -5z"/>
<path d="M2380 4220 c0 -5 7 -10 15 -10 20 0 47 -16 117 -67 32 -24 58 -39 58
-34 0 13 -55 58 -80 66 -11 4 -18 10 -15 15 6 9 -55 40 -79 40 -9 0 -16 -4
-16 -10z"/>
<path d="M1270 4210 c0 -5 5 -10 11 -10 5 0 7 5 4 10 -3 6 -8 10 -11 10 -2 0
-4 -4 -4 -10z"/>
<path d="M4605 4200 c-3 -5 1 -10 9 -10 8 0 18 5 21 10 3 6 -1 10 -9 10 -8 0
-18 -4 -21 -10z"/>
<path d="M2247 4185 c-9 -8 -19 -25 -22 -36 -10 -29 14 -43 34 -20 9 10 26 23
39 30 21 11 23 10 21 -11 -4 -46 1 -68 16 -68 8 0 24 -9 35 -20 11 -11 20 -18
20 -15 0 3 6 0 14 -7 11 -11 11 -15 -3 -25 -14 -11 -13 -12 10 -13 37 0 86 19
93 36 3 8 12 14 21 14 17 0 20 16 5 25 -6 4 -8 11 -4 16 8 13 -24 49 -44 49
-7 0 -27 9 -43 21 -38 27 -129 42 -136 22 -5 -12 -8 -11 -23 2 -16 14 -19 14
-33 0z m123 -45 c0 -5 -4 -10 -10 -10 -5 0 -10 5 -10 10 0 6 5 10 10 10 6 0
10 -4 10 -10z m100 -40 l32 -40 -58 0 c-55 0 -56 1 -41 18 10 10 17 28 17 40
0 32 14 27 50 -18z"/>
<path d="M60 4100 c0 -5 7 -10 15 -10 8 0 15 5 15 10 0 6 -7 10 -15 10 -8 0
-15 -4 -15 -10z"/>
<path d="M4625 4090 c-19 -8 -19 -9 3 -9 12 -1 22 4 22 9 0 6 -1 10 -2 9 -2 0
-12 -4 -23 -9z"/>
<path d="M1208 4033 c7 -3 16 -2 19 1 4 3 -2 6 -13 5 -11 0 -14 -3 -6 -6z"/>
<path d="M4630 4020 c-8 -5 -11 -12 -7 -16 4 -4 13 -2 19 4 15 15 7 24 -12 12z"/>
<path d="M1208 4013 c7 -3 16 -2 19 1 4 3 -2 6 -13 5 -11 0 -14 -3 -6 -6z"/>
<path d="M1 3984 c0 -11 3 -14 6 -6 3 7 2 16 -1 19 -3 4 -6 -2 -5 -13z"/>
<path d="M710 3995 c0 -5 5 -17 10 -25 5 -8 10 -10 10 -5 0 6 -5 17 -10 25 -5
8 -10 11 -10 5z"/>
<path d="M61 3983 c0 -4 4 -16 7 -26 7 -16 10 -16 27 -3 11 8 18 16 15 19 -11
10 -50 18 -49 10z"/>
<path d="M4625 3977 c-4 -10 -5 -21 -1 -24 10 -10 18 4 13 24 -4 17 -4 17 -12
0z"/>
<path d="M2910 3940 c0 -5 5 -10 11 -10 5 0 7 5 4 10 -3 6 -8 10 -11 10 -2 0
-4 -4 -4 -10z"/>
<path d="M720 3920 c0 -5 5 -10 10 -10 6 0 10 5 10 10 0 6 -4 10 -10 10 -5 0
-10 -4 -10 -10z"/>
<path d="M2580 3906 c-15 -39 -12 -46 6 -13 9 16 13 31 10 34 -3 3 -10 -6 -16
-21z"/>
<path d="M1197 3893 c-4 -3 -7 -11 -7 -17 0 -6 5 -5 12 2 6 6 9 14 7 17 -3 3
-9 2 -12 -2z"/>
<path d="M2810 3853 c0 -13 5 -23 10 -23 13 0 13 11 0 30 -8 12 -10 11 -10 -7z"/>
<path d="M1231 3844 c0 -11 3 -14 6 -6 3 7 2 16 -1 19 -3 4 -6 -2 -5 -13z"/>
<path d="M40 3840 c0 -5 5 -10 10 -10 6 0 10 5 10 10 0 6 -4 10 -10 10 -5 0
-10 -4 -10 -10z"/>
<path d="M4622 3819 c2 -7 10 -15 17 -17 8 -3 12 1 9 9 -2 7 -10 15 -17 17 -8
3 -12 -1 -9 -9z"/>
<path d="M10 3805 c-8 -9 -8 -15 -2 -15 12 0 26 19 19 26 -2 2 -10 -2 -17 -11z"/>
<path d="M1190 3736 c0 -8 4 -17 9 -20 5 -4 7 3 4 14 -6 23 -13 26 -13 6z"/>
<path d="M4292 3730 c0 -14 2 -19 5 -12 2 6 2 18 0 25 -3 6 -5 1 -5 -13z"/>
<path d="M2505 3669 c-10 -14 -7 -15 58 -23 60 -7 74 3 32 22 -32 15 -82 15
-90 1z"/>
<path d="M800 3649 c0 -5 5 -7 10 -4 6 3 10 8 10 11 0 2 -4 4 -10 4 -5 0 -10
-5 -10 -11z"/>
<path d="M2691 3629 c-29 -27 -27 -49 4 -49 14 0 25 -4 25 -9 0 -14 72 -19 98
-8 12 6 21 16 18 23 -3 8 -1 16 4 19 6 4 10 15 10 27 0 17 -3 18 -15 8 -9 -8
-26 -10 -42 -6 -59 15 -82 14 -102 -5z"/>
<path d="M766 3611 c-3 -4 -10 -20 -15 -34 -9 -23 -7 -25 20 -29 19 -3 29 0
29 8 0 8 -6 11 -15 8 -19 -8 -19 6 1 34 13 19 13 22 0 22 -8 0 -17 -4 -20 -9z"/>
<path d="M810 3509 c0 -5 5 -7 10 -4 6 3 10 8 10 11 0 2 -4 4 -10 4 -5 0 -10
-5 -10 -11z"/>
<path d="M1125 3500 c3 -5 8 -10 11 -10 2 0 4 5 4 10 0 6 -5 10 -11 10 -5 0
-7 -4 -4 -10z"/>
<path d="M2320 3504 c0 -21 90 -56 156 -60 38 -3 83 -9 99 -14 17 -6 62 -13
100 -16 39 -3 71 -7 73 -9 1 -1 -35 -16 -80 -34 l-83 -31 101 4 c111 5 174 27
207 72 25 33 13 47 -33 39 -23 -4 -58 0 -91 9 -31 9 -128 19 -229 25 -96 4
-185 12 -197 16 -13 4 -23 3 -23 -1z"/>
<path d="M800 3475 c0 -8 4 -15 10 -15 5 0 7 7 4 15 -4 8 -8 15 -10 15 -2 0
-4 -7 -4 -15z"/>
<path d="M1120 3426 c0 -16 6 -26 15 -26 8 0 15 5 15 10 0 6 -5 10 -11 10 -5
0 -8 4 -4 9 3 5 1 12 -5 16 -6 4 -10 -5 -10 -19z"/>
<path d="M1080 3410 c0 -5 5 -10 10 -10 6 0 10 5 10 10 0 6 -4 10 -10 10 -5 0
-10 -4 -10 -10z"/>
<path d="M802 3289 c2 -6 8 -10 13 -10 5 0 11 4 13 10 2 6 -4 11 -13 11 -9 0
-15 -5 -13 -11z"/>
<path d="M1025 3290 c3 -5 8 -10 11 -10 2 0 4 5 4 10 0 6 -5 10 -11 10 -5 0
-7 -4 -4 -10z"/>
<path d="M1050 3199 c0 -11 4 -18 10 -14 5 3 7 12 3 20 -7 21 -13 19 -13 -6z"/>
<path d="M1080 3171 c0 -12 5 -21 10 -21 6 0 10 6 10 14 0 8 -4 18 -10 21 -5
3 -10 -3 -10 -14z"/>
<path d="M1030 3150 c8 -5 20 -10 25 -10 6 0 3 5 -5 10 -8 5 -19 10 -25 10 -5
0 -3 -5 5 -10z"/>
<path d="M1050 3074 c-7 -8 -10 -17 -6 -21 3 -3 6 -1 6 5 0 21 19 13 23 -10 3
-20 5 -21 11 -6 5 11 2 23 -7 32 -13 14 -16 14 -27 0z"/>
<path d="M4720 3070 c-13 -8 -13 -10 2 -10 9 0 20 5 23 10 8 13 -5 13 -25 0z"/>
<path d="M876 3045 c-3 -8 -1 -15 4 -15 6 0 10 7 10 15 0 8 -2 15 -4 15 -2 0
-6 -7 -10 -15z"/>
<path d="M946 3021 c-4 -7 -5 -15 -2 -18 9 -9 19 4 14 18 -4 11 -6 11 -12 0z"/>
<path d="M880 2989 c0 -5 -4 -8 -9 -5 -21 13 -41 -6 -35 -33 7 -29 22 -51 21
-30 0 8 1 25 2 39 l2 25 13 -23 c13 -24 13 -24 13 7 0 17 -2 31 -4 31 -1 0 -3
-5 -3 -11z"/>
<path d="M2545 2981 c-3 -5 -1 -12 5 -16 5 -3 10 1 10 9 0 18 -6 21 -15 7z"/>
<path d="M941 2964 c0 -11 3 -14 6 -6 3 7 2 16 -1 19 -3 4 -6 -2 -5 -13z"/>
<path d="M2610 2820 c0 -5 5 -10 10 -10 6 0 10 5 10 10 0 6 -4 10 -10 10 -5 0
-10 -4 -10 -10z"/>
<path d="M2620 2776 c0 -9 5 -16 10 -16 6 0 10 4 10 9 0 6 -4 13 -10 16 -5 3
-10 -1 -10 -9z"/>
<path d="M4705 2750 c3 -5 8 -10 11 -10 2 0 4 5 4 10 0 6 -5 10 -11 10 -5 0
-7 -4 -4 -10z"/>
<path d="M3000 2447 c0 -8 7 -17 15 -21 8 -3 15 -2 15 3 0 5 -7 14 -15 21 -12
10 -15 10 -15 -3z"/>
<path d="M4771 1864 c0 -11 3 -14 6 -6 3 7 2 16 -1 19 -3 4 -6 -2 -5 -13z"/>
<path d="M3016 1774 c-5 -14 -4 -15 9 -4 17 14 19 20 6 20 -5 0 -12 -7 -15
-16z"/>
<path d="M2296 1703 c-26 -29 -54 -53 -61 -53 -24 0 -34 -64 -13 -85 6 -7 7 0
3 20 -5 29 -5 29 6 5 6 -14 12 -38 15 -54 2 -16 7 -32 11 -35 5 -3 21 -21 36
-40 26 -31 28 -40 26 -110 -2 -64 -9 -92 -45 -179 -24 -56 -52 -115 -62 -130
-53 -75 -123 -272 -166 -473 -20 -93 -33 -244 -35 -426 l-2 -143 411 0 410 0
0 28 c0 65 -22 205 -41 268 -11 38 -39 105 -61 149 -42 83 -160 458 -172 550
-4 28 -9 64 -12 80 -10 67 -20 211 -16 227 3 13 9 15 21 8 25 -13 39 0 43 40
3 33 5 35 37 32 31 -2 32 -1 20 14 -12 15 -11 16 9 10 34 -11 28 17 -8 33 -42
18 -148 99 -160 121 -6 11 -28 40 -50 65 -22 25 -40 51 -40 57 0 6 -13 25 -28
42 l-28 32 -48 -53z"/>
<path d="M4731 1674 c0 -11 3 -14 6 -6 3 7 2 16 -1 19 -3 4 -6 -2 -5 -13z"/>
<path d="M2888 1583 c7 -3 16 -2 19 1 4 3 -2 6 -13 5 -11 0 -14 -3 -6 -6z"/>
<path d="M2219 1543 c-13 -16 -12 -17 4 -4 9 7 17 15 17 17 0 8 -8 3 -21 -13z"/>
<path d="M2940 1440 c-8 -5 -12 -11 -9 -14 2 -3 11 -1 19 4 8 5 12 11 9 14 -2
3 -11 1 -19 -4z"/>
<path d="M3230 1439 c0 -5 5 -7 10 -4 6 3 10 8 10 11 0 2 -4 4 -10 4 -5 0 -10
-5 -10 -11z"/>
<path d="M4760 1270 c0 -5 7 -10 16 -10 8 0 12 5 9 10 -3 6 -10 10 -16 10 -5
0 -9 -4 -9 -10z"/>
<path d="M3565 1210 c-7 -12 10 -236 25 -320 8 -44 8 -44 9 -9 0 20 8 73 16
118 10 51 12 87 7 98 -5 10 -7 24 -4 32 3 8 0 11 -6 7 -7 -4 -12 9 -14 35 -3
42 -20 61 -33 39z"/>
<path d="M3602 770 c0 -14 2 -19 5 -12 2 6 2 18 0 25 -3 6 -5 1 -5 -13z"/>
<path d="M3571 108 c0 -9 -4 -25 -7 -35 -5 -17 -5 -17 6 0 6 10 9 25 7 35 -4
15 -5 15 -6 0z"/>
<path d="M3570 31 c0 -11 5 -23 10 -26 6 -4 10 5 10 19 0 14 -4 26 -10 26 -5
0 -10 -9 -10 -19z"/>
<path d="M1250 23 c0 -13 5 -23 10 -23 13 0 13 11 0 30 -8 12 -10 11 -10 -7z"/>
</g>
</svg>
