<?xml version="1.0" standalone="no"?>
<!DOCTYPE svg PUBLIC "-//W3C//DTD SVG 20010904//EN"
 "http://www.w3.org/TR/2001/REC-SVG-20010904/DTD/svg10.dtd">
<svg version="1.0" xmlns="http://www.w3.org/2000/svg"
 width="219.000000pt" height="217.000000pt" viewBox="0 0 219.000000 217.000000"
 preserveAspectRatio="xMidYMid meet">

<g transform="translate(0.000000,217.000000) scale(0.100000,-0.100000)"
fill="#000000" stroke="none">
<path d="M1055 2105 c-33 -7 -87 -16 -120 -20 -60 -7 -107 -32 -168 -90 -31
-30 -33 -30 -367 -40 -432 -14 -400 -12 -400 -26 0 -6 6 -9 14 -6 8 3 167 9
355 13 243 5 341 4 341 -4 0 -6 -5 -14 -10 -17 -23 -14 -140 -287 -140 -326 0
-13 -4 -18 -12 -13 -6 4 -8 3 -5 -3 3 -5 -2 -43 -13 -84 -10 -41 -24 -97 -30
-126 -13 -59 -15 -189 -5 -326 7 -96 0 -122 -25 -92 -7 8 -18 15 -24 15 -21
-1 39 -40 62 -40 13 0 22 -6 22 -16 0 -11 5 -14 17 -10 15 6 32 -8 33 -26 0
-4 -18 -16 -40 -27 -26 -12 -40 -15 -40 -8 0 8 -3 8 -9 -1 -4 -7 -12 -12 -17
-10 -5 1 -21 -10 -36 -25 -15 -15 -24 -27 -21 -27 3 0 -1 -7 -8 -17 -13 -15
-12 -15 9 -4 18 9 23 9 26 -1 13 -39 14 -40 15 -11 1 25 7 36 31 48 35 18 60
19 60 2 0 -7 -18 -36 -40 -66 -22 -29 -40 -60 -40 -70 1 -9 12 3 27 27 31 52
40 50 16 -4 -21 -48 -23 -67 -13 -123 7 -36 5 -46 -12 -63 -22 -22 -35 -17
-91 36 -26 24 -28 24 -22 5 4 -13 1 -27 -10 -39 -17 -18 -16 -21 13 -49 l30
-30 -24 -16 c-13 -8 -38 -18 -54 -22 -33 -6 -39 -17 -15 -27 8 -3 15 -1 15 5
0 6 23 9 60 7 51 -2 62 1 80 20 20 21 78 32 65 12 -4 -6 8 -10 30 -10 22 0 34
-4 30 -10 -8 -13 -3 -13 32 0 l28 10 -22 -19 c-13 -11 -23 -22 -23 -25 0 -11
29 -6 42 7 20 21 58 39 58 29 0 -13 62 -73 69 -67 2 3 -8 18 -23 34 -24 25
-26 31 -15 53 6 14 22 31 35 37 13 6 24 17 24 26 0 8 5 15 10 15 6 0 10 7 10
16 0 9 6 14 13 11 14 -5 47 40 47 64 0 8 18 35 39 59 l39 44 49 -11 c26 -6 87
-19 136 -29 59 -13 87 -23 87 -32 0 -10 9 -13 31 -10 24 4 33 0 39 -16 6 -13
9 -15 10 -6 0 13 1 13 10 0 5 -8 10 -10 11 -5 0 6 8 -12 18 -39 9 -28 23 -52
29 -54 9 -3 10 3 2 24 -16 42 -6 38 19 -7 26 -46 39 -45 23 1 -8 23 -8 38 3
64 16 38 174 206 194 206 7 0 9 5 6 11 -5 7 6 8 32 5 28 -5 33 -4 18 3 -17 8
-13 10 20 12 22 1 54 3 70 4 28 3 71 -10 135 -39 14 -6 44 -30 68 -53 23 -24
46 -43 51 -43 5 0 19 -27 31 -59 21 -57 43 -81 55 -61 3 5 0 12 -6 15 -5 4 -8
14 -5 22 3 8 2 12 -2 9 -4 -3 -14 4 -21 16 -10 16 -10 19 1 13 7 -5 5 0 -5 11
-24 26 -67 93 -67 104 0 6 -6 10 -13 10 -8 0 -22 9 -32 20 -10 11 -36 25 -57
32 -29 9 -38 16 -35 29 3 9 -4 24 -13 32 -17 14 -19 14 -24 0 -4 -9 -4 -18 -1
-21 3 -3 5 0 5 7 0 7 5 9 10 6 15 -9 2 -25 -20 -25 -16 0 -17 4 -9 32 11 41
11 48 0 48 -5 0 -12 -8 -14 -17 -4 -16 -5 -16 -6 1 -1 14 -4 16 -14 8 -10 -9
-17 -6 -30 8 -9 11 -12 20 -7 20 6 0 10 5 10 10 0 6 -9 10 -20 10 -11 0 -20
-4 -20 -10 0 -5 -8 -10 -17 -10 -15 0 -14 2 3 15 34 25 84 18 97 -15 4 -10 6
-8 6 7 1 12 6 23 12 25 6 2 12 16 12 31 1 15 5 27 9 27 4 0 5 7 1 16 -3 9 0
20 8 26 11 7 9 8 -6 6 -11 -2 -21 -9 -21 -16 -1 -6 -2 -16 -3 -22 0 -5 -6 -10
-12 -10 -5 0 -7 5 -4 10 3 6 1 10 -6 10 -7 0 -9 10 -6 30 5 23 3 28 -8 24 -10
-4 -13 -14 -9 -30 5 -19 2 -24 -12 -24 -14 0 -15 3 -6 8 7 5 10 16 6 25 -3 9
-10 15 -14 12 -5 -3 -11 -1 -15 5 -4 6 5 10 20 10 21 0 26 4 21 16 -3 9 -6 18
-6 20 0 2 -5 4 -11 4 -6 0 -9 -7 -5 -15 3 -8 1 -15 -5 -15 -6 0 -13 9 -16 20
-5 19 -24 25 -65 22 -10 -1 -18 3 -18 8 0 6 -8 10 -17 11 -14 0 -13 2 5 9 22
9 31 30 12 30 -5 0 -10 -4 -10 -10 0 -5 -4 -10 -8 -10 -5 0 -9 15 -9 33 -3
133 -7 161 -24 178 -18 18 -18 19 -1 20 9 1 20 1 24 0 9 -1 4 27 -7 36 -4 4
-5 3 -1 -4 3 -6 2 -14 -4 -18 -9 -6 -14 10 -13 43 1 6 -4 12 -9 12 -8 0 -5 18
10 58 5 15 -19 12 -31 -3 -5 -5 -6 0 -2 11 3 12 -2 42 -10 68 -9 26 -13 51
-10 56 3 6 1 10 -5 10 -6 0 -10 6 -9 13 1 6 -1 21 -5 32 -4 11 -13 34 -19 50
-20 58 -68 152 -87 172 -10 12 -16 23 -13 26 3 4 121 7 262 7 141 1 268 3 284
4 15 1 77 3 137 4 72 1 110 6 110 13 0 13 -283 7 -314 -6 -11 -5 -17 -5 -14 1
5 8 -180 9 -309 1 -24 -1 -43 2 -43 6 0 5 -8 6 -17 3 -10 -3 -41 -6 -70 -7
-47 -2 -56 1 -94 36 -46 41 -125 80 -179 88 -19 2 -62 -1 -95 -8z m-85 -30 c0
-6 -56 -35 -67 -35 -4 1 8 9 27 20 39 22 40 22 40 15z m-110 -55 c0 -5 -8 -10
-17 -10 -15 0 -16 2 -3 10 19 12 20 12 20 0z m60 -15 c0 -2 -10 -10 -22 -16
-21 -11 -22 -11 -9 4 13 16 31 23 31 12z m-56 -40 c-4 -8 -11 -15 -16 -15 -6
0 -5 6 2 15 7 8 14 15 16 15 2 0 1 -7 -2 -15z m241 -157 c28 -13 33 -39 10
-58 -8 -7 -15 -19 -15 -28 0 -13 3 -13 19 2 18 17 20 16 26 -3 3 -12 3 -30 0
-41 -4 -12 -2 -20 4 -20 19 0 81 -44 81 -57 0 -7 5 -13 12 -13 8 0 9 -3 2 -10
-8 -8 -20 -7 -40 0 -48 19 -162 -7 -204 -45 -17 -16 -19 -21 -8 -30 8 -5 21
-28 29 -50 15 -40 20 -43 91 -48 9 -1 14 -5 12 -9 -3 -4 4 -8 15 -8 27 0 80
31 86 52 3 9 22 23 43 31 36 15 37 14 50 -9 18 -34 28 -144 13 -144 -8 0 -10
-8 -6 -21 5 -14 3 -20 -7 -18 -19 4 -81 -11 -95 -23 -9 -7 -18 -6 -28 2 -9 8
-44 13 -85 13 -38 0 -67 4 -64 9 7 11 -28 -3 -43 -18 -7 -6 -9 -14 -6 -18 4
-3 1 -6 -5 -6 -6 0 -14 5 -17 10 -4 6 -16 10 -28 8 -19 -3 -22 1 -20 32 2 33
1 31 -26 -26 -27 -58 -44 -74 -78 -74 -19 0 -9 51 18 96 14 24 70 71 107 90 1
0 6 32 11 70 7 55 5 71 -5 77 -8 4 -14 13 -14 19 0 6 -7 16 -15 22 -13 9 -13
15 -1 37 7 15 16 50 19 78 8 77 34 114 87 128 25 6 46 12 47 12 1 1 14 -4 28
-11z m58 -265 c-7 -2 -19 -2 -25 0 -7 3 -2 5 12 5 14 0 19 -2 13 -5z m417
-183 c0 -5 -2 -10 -4 -10 -3 0 -8 5 -11 10 -3 6 -1 10 4 10 6 0 11 -4 11 -10z
m7 -72 c-3 -8 -6 -5 -6 6 -1 11 2 17 5 13 3 -3 4 -12 1 -19z m-440 -92 c-2 -6
-25 -12 -51 -14 l-48 -3 34 34 c33 35 33 35 51 15 10 -12 16 -26 14 -32z
m-200 -6 c7 -11 9 -21 3 -25 -5 -3 -12 0 -16 6 -4 8 -9 7 -16 -2 -7 -11 -8 -9
-4 4 3 10 6 23 6 28 0 15 15 10 27 -11z m-82 -100 c4 0 3 5 -1 12 -5 8 -2 9
10 5 10 -4 23 -7 29 -7 7 0 4 -5 -6 -11 -9 -6 -15 -14 -12 -20 9 -13 -7 -11
-26 4 -18 14 -30 43 -21 51 3 4 10 -2 14 -14 4 -11 10 -20 13 -20z m232 19
c-24 -14 -87 -22 -87 -11 0 5 14 9 31 10 17 0 34 3 37 6 3 3 12 6 21 6 13 -1
13 -2 -2 -11z m98 1 c-3 -5 -10 -10 -16 -10 -5 0 -9 5 -9 10 0 6 7 10 16 10 8
0 12 -4 9 -10z m497 -21 c5 -3 3 -9 -6 -12 -10 -4 -16 -1 -16 9 0 8 -4 12 -10
9 -5 -3 -10 -2 -10 4 0 14 24 20 29 7 2 -6 8 -14 13 -17z m-757 -9 c-3 -5 -11
-10 -16 -10 -6 0 -7 5 -4 10 3 6 11 10 16 10 6 0 7 -4 4 -10z m778 -38 c-18
-2 -33 -7 -33 -13 0 -5 -4 -9 -9 -9 -5 0 -7 8 -4 18 3 14 11 17 41 13 l37 -6
-32 -3z m-543 -10 c0 -39 -54 -64 -138 -65 -28 0 -47 5 -53 14 -18 29 -10 36
44 32 39 -3 61 1 87 16 44 25 60 26 60 3z m570 -25 c10 -4 8 -6 -7 -6 -16 -1
-23 5 -23 17 0 10 3 13 8 6 4 -6 14 -14 22 -17z m64 -34 c10 -26 -28 -29 -74
-6 -40 21 -42 23 -17 23 15 0 27 -6 28 -12 0 -7 5 -3 11 9 9 18 13 20 29 10
10 -6 21 -17 23 -24z m-739 -33 c-3 -5 -10 -10 -16 -10 -5 0 -9 5 -9 10 0 6 7
10 16 10 8 0 12 -4 9 -10z m680 -80 c4 -6 12 -7 18 -4 9 5 9 4 0 -6 -9 -10
-15 -10 -28 4 -9 9 -12 16 -6 16 5 0 13 -5 16 -10z"/>
<path d="M1067 1333 c-8 -8 23 -32 42 -33 11 0 10 5 -4 20 -19 21 -28 24 -38
13z"/>
<path d="M1762 978 c5 -15 28 -23 28 -10 0 5 -7 13 -16 16 -10 4 -14 1 -12 -6z"/>
<path d="M1697 1809 c7 -7 15 -10 18 -7 3 3 -2 9 -12 12 -14 6 -15 5 -6 -5z"/>
<path d="M1945 1640 c-3 -5 -1 -10 4 -10 6 0 11 5 11 10 0 6 -2 10 -4 10 -3 0
-8 -4 -11 -10z"/>
<path d="M1965 1548 l-20 -21 23 12 c12 6 22 16 22 21 0 13 -2 12 -25 -12z"/>
<path d="M1911 1544 c0 -11 3 -14 6 -6 3 7 2 16 -1 19 -3 4 -6 -2 -5 -13z"/>
<path d="M1875 1530 c-3 -5 -1 -10 4 -10 6 0 11 5 11 10 0 6 -2 10 -4 10 -3 0
-8 -4 -11 -10z"/>
<path d="M1958 1473 c7 -3 16 -2 19 1 4 3 -2 6 -13 5 -11 0 -14 -3 -6 -6z"/>
<path d="M1808 1463 c6 -2 18 -2 25 0 6 3 1 5 -13 5 -14 0 -19 -2 -12 -5z"/>
<path d="M1650 1451 c0 -6 4 -13 10 -16 6 -3 7 1 4 9 -7 18 -14 21 -14 7z"/>
<path d="M1700 1450 c0 -5 5 -10 10 -10 6 0 10 5 10 10 0 6 -4 10 -10 10 -5 0
-10 -4 -10 -10z"/>
<path d="M1863 1453 c-19 -7 -16 -19 6 -19 11 0 17 5 14 13 -3 7 -6 13 -7 12
0 0 -7 -3 -13 -6z"/>
<path d="M1906 1414 c-9 -24 -7 -28 9 -14 17 14 20 30 6 30 -5 0 -12 -7 -15
-16z"/>
<path d="M1655 1380 c3 -5 8 -10 11 -10 2 0 4 5 4 10 0 6 -5 10 -11 10 -5 0
-7 -4 -4 -10z"/>
<path d="M1862 1360 c0 -14 2 -19 5 -12 2 6 2 18 0 25 -3 6 -5 1 -5 -13z"/>
<path d="M1706 1355 c4 -8 7 -15 9 -15 2 0 5 7 9 15 3 9 0 15 -9 15 -9 0 -12
-6 -9 -15z"/>
<path d="M1814 1318 c1 -13 -1 -25 -4 -28 -4 -3 -1 -15 5 -27 10 -20 12 -17
13 27 0 28 -3 50 -7 50 -5 0 -8 -10 -7 -22z"/>
<path d="M1637 1315 c-4 -8 -1 -17 6 -21 7 -4 9 -4 5 1 -4 4 -3 14 3 22 7 8 8
13 1 13 -5 0 -12 -7 -15 -15z"/>
<path d="M1750 1320 c0 -5 5 -10 11 -10 5 0 7 5 4 10 -3 6 -8 10 -11 10 -2 0
-4 -4 -4 -10z"/>
<path d="M1930 1320 c-12 -7 -10 -9 7 -7 12 0 19 5 17 9 -6 10 -6 10 -24 -2z"/>
<path d="M1844 1305 c-3 -8 -4 -20 -2 -27 3 -7 7 -1 10 15 6 29 1 36 -8 12z"/>
<path d="M2118 1313 c7 -3 16 -2 19 1 4 3 -2 6 -13 5 -11 0 -14 -3 -6 -6z"/>
<path d="M2080 1299 c0 -5 5 -7 10 -4 6 3 10 8 10 11 0 2 -4 4 -10 4 -5 0 -10
-5 -10 -11z"/>
<path d="M1960 1286 c0 -8 4 -17 8 -20 4 -2 8 4 8 15 0 10 -4 19 -8 19 -4 0
-8 -6 -8 -14z"/>
<path d="M1682 1274 c-7 -8 -10 -19 -7 -24 3 -6 -3 -10 -14 -10 -25 0 -28 -25
-5 -34 24 -9 46 -7 39 4 -3 5 -12 7 -19 4 -8 -3 -17 -1 -21 5 -4 7 3 11 17 11
19 0 23 6 24 30 1 17 1 30 0 30 -1 -1 -7 -7 -14 -16z"/>
<path d="M1724 1265 c-8 -19 16 -39 30 -25 5 5 2 15 -8 25 -15 15 -17 15 -22
0z"/>
<path d="M1867 1261 c-4 -17 -3 -21 5 -13 5 5 8 16 6 23 -3 8 -7 3 -11 -10z"/>
<path d="M1920 1270 c0 -5 5 -10 11 -10 5 0 7 5 4 10 -3 6 -8 10 -11 10 -2 0
-4 -4 -4 -10z"/>
<path d="M2120 1250 c0 -5 5 -10 10 -10 6 0 10 5 10 10 0 6 -4 10 -10 10 -5 0
-10 -4 -10 -10z"/>
<path d="M1770 1221 c0 -6 4 -13 10 -16 6 -3 7 1 4 9 -7 18 -14 21 -14 7z"/>
<path d="M447 1199 c4 -13 8 -18 11 -10 2 7 -1 18 -6 23 -8 8 -9 4 -5 -13z"/>
<path d="M1857 1205 c-6 -15 10 -32 20 -21 4 3 1 6 -5 6 -6 0 -9 7 -6 15 4 8
4 15 1 15 -3 0 -7 -7 -10 -15z"/>
<path d="M1976 1205 c4 -8 10 -15 15 -15 4 0 6 7 3 15 -4 8 -10 15 -15 15 -4
0 -6 -7 -3 -15z"/>
<path d="M2020 1210 c0 -5 5 -10 11 -10 5 0 7 5 4 10 -3 6 -8 10 -11 10 -2 0
-4 -4 -4 -10z"/>
<path d="M1901 1201 c-7 -5 -9 -11 -5 -14 5 -3 15 1 22 9 14 16 5 18 -17 5z"/>
<path d="M1683 1193 c-13 -2 -23 -10 -23 -18 0 -7 -6 -16 -12 -18 -9 -4 -8 -6
3 -6 8 -1 21 5 28 12 11 10 13 9 7 -3 -4 -8 -1 -7 8 3 10 13 21 17 35 12 12
-4 21 -2 21 4 0 6 -4 11 -9 11 -5 0 -15 2 -23 4 -7 2 -23 1 -35 -1z"/>
<path d="M1810 1180 c-8 -5 -12 -12 -9 -15 4 -3 12 1 19 10 14 17 11 19 -10 5z"/>
<path d="M1920 1171 c0 -5 5 -13 10 -16 6 -3 10 -2 10 4 0 5 -4 13 -10 16 -5
3 -10 2 -10 -4z"/>
<path d="M1825 1159 c-4 -6 -5 -12 -2 -15 2 -3 7 2 10 11 7 17 1 20 -8 4z"/>
<path d="M1720 1156 c0 -2 7 -7 16 -10 8 -3 12 -2 9 4 -6 10 -25 14 -25 6z"/>
<path d="M1798 1123 c6 -2 18 -2 25 0 6 3 1 5 -13 5 -14 0 -19 -2 -12 -5z"/>
<path d="M1881 1103 c1 -22 2 -23 6 -8 3 11 10 23 17 27 7 5 5 8 -6 8 -13 0
-18 -7 -17 -27z"/>
<path d="M1935 1080 c3 -5 8 -10 11 -10 2 0 4 5 4 10 0 6 -5 10 -11 10 -5 0
-7 -4 -4 -10z"/>
<path d="M1800 1070 c0 -5 5 -10 10 -10 6 0 10 5 10 10 0 6 -4 10 -10 10 -5 0
-10 -4 -10 -10z"/>
<path d="M1830 1069 c0 -5 5 -7 10 -4 6 3 10 8 10 11 0 2 -4 4 -10 4 -5 0 -10
-5 -10 -11z"/>
<path d="M1862 1050 c0 -14 2 -19 5 -12 2 6 2 18 0 25 -3 6 -5 1 -5 -13z"/>
<path d="M365 1020 c3 -5 11 -10 16 -10 6 0 7 5 4 10 -3 6 -11 10 -16 10 -6 0
-7 -4 -4 -10z"/>
<path d="M1900 1026 c0 -2 9 -6 20 -9 11 -3 18 -1 14 4 -5 9 -34 13 -34 5z"/>
<path d="M1875 1010 c3 -5 8 -10 11 -10 2 0 4 5 4 10 0 6 -5 10 -11 10 -5 0
-7 -4 -4 -10z"/>
<path d="M1901 997 c-6 -8 -8 -17 -4 -20 12 -13 22 -7 20 13 -2 24 -1 24 -16
7z"/>
<path d="M2100 950 c0 -5 7 -7 15 -4 8 4 15 8 15 10 0 2 -7 4 -15 4 -8 0 -15
-4 -15 -10z"/>
<path d="M1840 940 c0 -5 5 -10 10 -10 6 0 10 5 10 10 0 6 -4 10 -10 10 -5 0
-10 -4 -10 -10z"/>
<path d="M1880 935 c-10 -12 -10 -15 3 -15 19 0 31 16 18 24 -5 3 -14 -1 -21
-9z"/>
<path d="M1763 912 c1 -14 5 -18 11 -12 7 7 6 14 -1 21 -9 9 -12 7 -10 -9z"/>
<path d="M1935 910 c3 -5 8 -10 11 -10 2 0 4 5 4 10 0 6 -5 10 -11 10 -5 0 -7
-4 -4 -10z"/>
<path d="M1857 895 c-15 -11 -17 -17 -7 -32 10 -15 11 -16 6 -1 -6 20 10 35
17 16 2 -7 7 -11 9 -8 3 3 3 13 -1 22 -5 14 -9 15 -24 3z"/>
<path d="M1900 901 c0 -7 7 -19 15 -27 13 -13 15 -13 15 -1 0 8 -7 20 -15 27
-11 9 -15 10 -15 1z"/>
<path d="M1920 801 c0 -5 5 -13 10 -16 6 -3 10 -2 10 4 0 5 -4 13 -10 16 -5 3
-10 2 -10 -4z"/>
<path d="M1980 790 c0 -5 7 -7 15 -4 8 4 15 8 15 10 0 2 -7 4 -15 4 -8 0 -15
-4 -15 -10z"/>
<path d="M2060 715 c0 -8 4 -15 10 -15 5 0 7 7 4 15 -4 8 -8 15 -10 15 -2 0
-4 -7 -4 -15z"/>
<path d="M146 591 c24 -22 94 -54 94 -43 0 5 -26 20 -57 36 -48 23 -54 24 -37
7z"/>
<path d="M250 545 c0 -8 2 -15 4 -15 2 0 6 7 10 15 3 8 1 15 -4 15 -6 0 -10
-7 -10 -15z"/>
<path d="M460 510 c-9 -6 -10 -10 -3 -10 6 0 15 5 18 10 8 12 4 12 -15 0z"/>
<path d="M2104 505 c-4 -8 -11 -12 -17 -8 -6 3 -7 1 -3 -5 9 -15 9 -15 29 8 9
11 12 20 7 20 -6 0 -13 -7 -16 -15z"/>
<path d="M161 384 c0 -11 3 -14 6 -6 3 7 2 16 -1 19 -3 4 -6 -2 -5 -13z"/>
<path d="M190 386 c0 -9 5 -16 10 -16 6 0 10 4 10 9 0 6 -4 13 -10 16 -5 3
-10 -1 -10 -9z"/>
<path d="M2119 333 c-13 -17 -13 -17 6 -3 11 8 22 16 24 17 2 2 0 3 -6 3 -6 0
-17 -8 -24 -17z"/>
<path d="M2111 214 c0 -11 3 -14 6 -6 3 7 2 16 -1 19 -3 4 -6 -2 -5 -13z"/>
<path d="M36 197 c3 -10 9 -15 12 -12 3 3 0 11 -7 18 -10 9 -11 8 -5 -6z"/>
<path d="M2135 200 c3 -5 8 -10 11 -10 2 0 4 5 4 10 0 6 -5 10 -11 10 -5 0 -7
-4 -4 -10z"/>
<path d="M2114 115 c1 -36 3 -65 6 -65 7 0 40 38 40 46 0 4 -6 1 -14 -5 -16
-14 -28 -1 -17 17 6 10 15 10 34 3 22 -9 27 -8 27 4 0 8 -9 15 -20 15 -14 0
-20 7 -21 23 0 21 -1 21 -9 2 -8 -19 -9 -19 -9 3 -1 12 -5 22 -10 22 -4 0 -8
-29 -7 -65z"/>
<path d="M30 166 c0 -2 8 -10 18 -17 15 -13 16 -12 3 4 -13 16 -21 21 -21 13z"/>
<path d="M402 130 c0 -14 2 -19 5 -12 2 6 2 18 0 25 -3 6 -5 1 -5 -13z"/>
<path d="M2133 15 c0 -8 6 -15 14 -15 7 0 13 7 13 15 0 8 -6 15 -13 15 -8 0
-14 -7 -14 -15z"/>
</g>
</svg>
